<svg xmlns="http://www.w3.org/2000/svg" xmlns:v="https://svgstorm.com"
viewBox = "0 0 216 195"
width="216"
height="195">
<g fill="None" fill-opacity="0.0" stroke="#000000" stroke-opacity="0.00" stroke-width="0.3"><path d="
M 0.00 195.00 
L 216.00 195.00
L 216.00 0.00
L 0.00 0.00
L 0.00 195.00
M 146.00 40.00 
C 147.71 41.71 149.55 43.05 151.00 45.00
C 158.51 55.10 163.00 67.24 163.00 80.00
C 163.21 82.19 163.21 84.87 163.00 87.00
C 163.00 93.81 161.09 100.59 159.69 106.69 C 158.30 112.79 152.98 116.26 152.00 122.00
C 152.40 127.25 162.54 131.00 165.25 135.75 C 167.96 140.50 175.33 144.52 178.75 149.25 C 182.18 153.97 189.03 157.89 192.00 163.00
C 197.55 172.55 188.28 182.75 178.00 178.00
C 169.44 174.04 161.54 161.54 155.00 155.00
C 150.36 150.36 140.11 137.13 134.00 139.00
C 109.09 152.06 80.07 153.21 57.00 135.00
C 51.99 131.05 47.42 126.19 44.00 121.00
C 37.45 111.05 33.65 99.97 33.00 88.00
C 32.86 85.39 32.86 82.61 33.00 80.00
C 33.65 68.07 37.46 56.94 44.00 47.00
C 47.44 41.78 52.06 36.90 57.00 33.00
C 83.26 12.27 123.77 13.98 146.00 40.00 Z"/>
</g>
<g fill="None" fill-opacity="0.0" stroke="#D1B696" stroke-opacity="0.96" stroke-width="0.3"><path d="
M 57.00 33.00 
C 52.50 37.16 47.79 42.48 44.00 47.00
C 37.46 56.94 33.65 68.07 33.00 80.00
C 33.09 82.07 33.09 86.00 33.00 88.00
C 33.65 99.97 37.45 111.05 44.00 121.00
C 47.81 125.55 52.56 130.89 57.00 135.00
C 80.07 153.21 109.09 152.06 134.00 139.00
C 140.61 135.54 149.71 149.71 155.00 155.00
C 158.56 158.56 162.86 163.05 166.75 166.25 C 170.64 169.44 173.89 175.73 178.00 178.00
C 188.28 182.75 197.55 172.55 192.00 163.00
C 188.73 158.24 181.63 154.55 178.25 149.75 C 174.86 144.96 167.26 140.34 164.25 135.75 C 161.23 131.17 151.28 126.23 152.00 122.00
C 152.98 116.26 158.30 112.79 159.69 106.69 C 161.09 100.59 163.00 93.81 163.00 87.00
C 163.00 84.67 163.00 82.33 163.00 80.00
C 163.00 67.24 158.51 55.10 151.00 45.00
C 149.53 43.32 147.46 41.71 146.00 40.00
C 123.77 13.98 83.26 12.27 57.00 33.00
M 105.00 40.00 
C 125.78 44.83 143.00 61.29 143.00 84.00 C 142.99 106.72 125.80 123.16 105.00 128.00
C 100.67 129.01 96.25 128.82 92.00 128.00
C 84.98 127.44 76.81 123.78 71.00 120.00
C 68.05 118.08 64.89 114.90 63.00 112.00
C 58.44 105.01 54.58 96.59 54.00 88.00
C 53.48 85.08 53.49 82.86 54.00 80.00
C 54.58 71.46 58.44 62.99 63.00 56.00
C 64.92 53.05 68.10 49.89 71.00 48.00
C 76.80 44.22 84.94 40.56 92.00 40.00
C 96.31 39.17 100.73 39.01 105.00 40.00 Z"/>
</g>
<g fill="None" fill-opacity="0.0" stroke="#FBF6F3" stroke-opacity="0.10" stroke-width="0.3"><path d="
M 44.00 47.00 
C 47.79 42.48 52.50 37.16 57.00 33.00
C 52.06 36.90 47.44 41.78 44.00 47.00 Z"/>
</g>
<g fill="None" fill-opacity="0.0" stroke="#F6EFEA" stroke-opacity="0.17" stroke-width="0.3"><path d="
M 92.00 40.00 
C 96.08 39.68 100.94 39.55 105.00 40.00
C 100.73 39.01 96.31 39.17 92.00 40.00 Z"/>
</g>
<g fill="None" fill-opacity="0.0" stroke="#000000" stroke-opacity="0.00" stroke-width="0.3"><path d="
M 71.00 48.00 
C 68.77 49.71 64.67 53.82 63.00 56.00
C 58.44 62.99 54.58 71.46 54.00 80.00
C 53.82 82.58 53.82 85.42 54.00 88.00
C 54.58 96.59 58.44 105.01 63.00 112.00
C 64.71 114.23 68.82 118.33 71.00 120.00
C 76.81 123.78 84.98 127.44 92.00 128.00
C 96.08 128.32 100.94 128.45 105.00 128.00
C 125.80 123.16 142.99 106.72 143.00 84.00 C 143.00 61.29 125.78 44.83 105.00 40.00
C 100.94 39.55 96.08 39.68 92.00 40.00
C 84.94 40.56 76.80 44.22 71.00 48.00 Z"/>
</g>
<g fill="None" fill-opacity="0.0" stroke="#F6EDE7" stroke-opacity="0.20" stroke-width="0.3"><path d="
M 151.00 45.00 
C 149.55 43.05 147.71 41.71 146.00 40.00
C 147.46 41.71 149.53 43.32 151.00 45.00 Z"/>
</g>
<g fill="None" fill-opacity="0.0" stroke="#F0E8DD" stroke-opacity="0.27" stroke-width="0.3"><path d="
M 63.00 56.00 
C 64.67 53.82 68.77 49.71 71.00 48.00
C 68.10 49.89 64.92 53.05 63.00 56.00 Z"/>
</g>
<g fill="None" fill-opacity="0.0" stroke="#E1D0BB" stroke-opacity="0.60" stroke-width="0.3"><path d="
M 33.00 88.00 
C 33.09 86.00 33.09 82.07 33.00 80.00
C 32.86 82.61 32.86 85.39 33.00 88.00 Z"/>
</g>
<g fill="None" fill-opacity="0.0" stroke="#EDE2D6" stroke-opacity="0.35" stroke-width="0.3"><path d="
M 54.00 88.00 
C 53.82 85.42 53.82 82.58 54.00 80.00
C 53.49 82.86 53.48 85.08 54.00 88.00 Z"/>
</g>
<g fill="None" fill-opacity="0.0" stroke="#FBF7F1" stroke-opacity="0.09" stroke-width="0.3"><path d="
M 163.00 87.00 
C 163.21 84.87 163.21 82.19 163.00 80.00
C 163.00 82.33 163.00 84.67 163.00 87.00 Z"/>
</g>
<g fill="None" fill-opacity="0.0" stroke="#F1E8DE" stroke-opacity="0.28" stroke-width="0.3"><path d="
M 71.00 120.00 
C 68.82 118.33 64.71 114.23 63.00 112.00
C 64.89 114.90 68.05 118.08 71.00 120.00 Z"/>
</g>
<g fill="None" fill-opacity="0.0" stroke="#FBF6F3" stroke-opacity="0.10" stroke-width="0.3"><path d="
M 57.00 135.00 
C 52.56 130.89 47.81 125.55 44.00 121.00
C 47.42 126.19 51.99 131.05 57.00 135.00 Z"/>
</g>
<g fill="None" fill-opacity="0.0" stroke="#FBF8F4" stroke-opacity="0.09" stroke-width="0.3"><path d="
M 192.00 163.00 
C 189.03 157.89 182.18 153.97 178.75 149.25 C 175.33 144.52 167.96 140.50 165.25 135.75 C 162.54 131.00 152.40 127.25 152.00 122.00
C 151.28 126.23 161.23 131.17 164.25 135.75 C 167.26 140.34 174.86 144.96 178.25 149.75 C 181.63 154.55 188.73 158.24 192.00 163.00 Z"/>
</g>
<g fill="None" fill-opacity="0.0" stroke="#F7F0E9" stroke-opacity="0.18" stroke-width="0.3"><path d="
M 105.00 128.00 
C 100.94 128.45 96.08 128.32 92.00 128.00
C 96.25 128.82 100.67 129.01 105.00 128.00 Z"/>
</g>
<g fill="None" fill-opacity="0.0" stroke="#EEE4D9" stroke-opacity="0.33" stroke-width="0.3"><path d="
M 134.00 139.00 
C 140.11 137.13 150.36 150.36 155.00 155.00
C 149.71 149.71 140.61 135.54 134.00 139.00 Z"/>
</g>
<g fill="None" fill-opacity="0.0" stroke="#E5D7C6" stroke-opacity="0.50" stroke-width="0.3"><path d="
M 178.00 178.00 
C 173.89 175.73 170.64 169.44 166.75 166.25 C 162.86 163.05 158.56 158.56 155.00 155.00
C 161.54 161.54 169.44 174.04 178.00 178.00 Z"/>
</g>
<g fill="#000000" fill-opacity="0.00" stroke="None">
<path d="
M 0.00 195.00 
L 216.00 195.00
L 216.00 0.00
L 0.00 0.00
L 0.00 195.00
M 146.00 40.00 
C 147.71 41.71 149.55 43.05 151.00 45.00
C 158.51 55.10 163.00 67.24 163.00 80.00
C 163.21 82.19 163.21 84.87 163.00 87.00
C 163.00 93.81 161.09 100.59 159.69 106.69 C 158.30 112.79 152.98 116.26 152.00 122.00
C 152.40 127.25 162.54 131.00 165.25 135.75 C 167.96 140.50 175.33 144.52 178.75 149.25 C 182.18 153.97 189.03 157.89 192.00 163.00
C 197.55 172.55 188.28 182.75 178.00 178.00
C 169.44 174.04 161.54 161.54 155.00 155.00
C 150.36 150.36 140.11 137.13 134.00 139.00
C 109.09 152.06 80.07 153.21 57.00 135.00
C 51.99 131.05 47.42 126.19 44.00 121.00
C 37.45 111.05 33.65 99.97 33.00 88.00
C 32.86 85.39 32.86 82.61 33.00 80.00
C 33.65 68.07 37.46 56.94 44.00 47.00
C 47.44 41.78 52.06 36.90 57.00 33.00
C 83.26 12.27 123.77 13.98 146.00 40.00 Z"/>
</g>
<g fill="#D1B696" fill-opacity="0.96" stroke="None">
<path d="
M 57.00 33.00 
C 52.50 37.16 47.79 42.48 44.00 47.00
C 37.46 56.94 33.65 68.07 33.00 80.00
C 33.09 82.07 33.09 86.00 33.00 88.00
C 33.65 99.97 37.45 111.05 44.00 121.00
C 47.81 125.55 52.56 130.89 57.00 135.00
C 80.07 153.21 109.09 152.06 134.00 139.00
C 140.61 135.54 149.71 149.71 155.00 155.00
C 158.56 158.56 162.86 163.05 166.75 166.25 C 170.64 169.44 173.89 175.73 178.00 178.00
C 188.28 182.75 197.55 172.55 192.00 163.00
C 188.73 158.24 181.63 154.55 178.25 149.75 C 174.86 144.96 167.26 140.34 164.25 135.75 C 161.23 131.17 151.28 126.23 152.00 122.00
C 152.98 116.26 158.30 112.79 159.69 106.69 C 161.09 100.59 163.00 93.81 163.00 87.00
C 163.00 84.67 163.00 82.33 163.00 80.00
C 163.00 67.24 158.51 55.10 151.00 45.00
C 149.53 43.32 147.46 41.71 146.00 40.00
C 123.77 13.98 83.26 12.27 57.00 33.00
M 105.00 40.00 
C 125.78 44.83 143.00 61.29 143.00 84.00 C 142.99 106.72 125.80 123.16 105.00 128.00
C 100.67 129.01 96.25 128.82 92.00 128.00
C 84.98 127.44 76.81 123.78 71.00 120.00
C 68.05 118.08 64.89 114.90 63.00 112.00
C 58.44 105.01 54.58 96.59 54.00 88.00
C 53.48 85.08 53.49 82.86 54.00 80.00
C 54.58 71.46 58.44 62.99 63.00 56.00
C 64.92 53.05 68.10 49.89 71.00 48.00
C 76.80 44.22 84.94 40.56 92.00 40.00
C 96.31 39.17 100.73 39.01 105.00 40.00 Z"/>
</g>
<g fill="#FBF6F3" fill-opacity="0.10" stroke="None">
<path d="
M 44.00 47.00 
C 47.79 42.48 52.50 37.16 57.00 33.00
C 52.06 36.90 47.44 41.78 44.00 47.00 Z"/>
</g>
<g fill="#F6EFEA" fill-opacity="0.17" stroke="None">
<path d="
M 92.00 40.00 
C 96.08 39.68 100.94 39.55 105.00 40.00
C 100.73 39.01 96.31 39.17 92.00 40.00 Z"/>
</g>
<g fill="#000000" fill-opacity="0.00" stroke="None">
<path d="
M 71.00 48.00 
C 68.77 49.71 64.67 53.82 63.00 56.00
C 58.44 62.99 54.58 71.46 54.00 80.00
C 53.82 82.58 53.82 85.42 54.00 88.00
C 54.58 96.59 58.44 105.01 63.00 112.00
C 64.71 114.23 68.82 118.33 71.00 120.00
C 76.81 123.78 84.98 127.44 92.00 128.00
C 96.08 128.32 100.94 128.45 105.00 128.00
C 125.80 123.16 142.99 106.72 143.00 84.00 C 143.00 61.29 125.78 44.83 105.00 40.00
C 100.94 39.55 96.08 39.68 92.00 40.00
C 84.94 40.56 76.80 44.22 71.00 48.00 Z"/>
</g>
<g fill="#F6EDE7" fill-opacity="0.20" stroke="None">
<path d="
M 151.00 45.00 
C 149.55 43.05 147.71 41.71 146.00 40.00
C 147.46 41.71 149.53 43.32 151.00 45.00 Z"/>
</g>
<g fill="#F0E8DD" fill-opacity="0.27" stroke="None">
<path d="
M 63.00 56.00 
C 64.67 53.82 68.77 49.71 71.00 48.00
C 68.10 49.89 64.92 53.05 63.00 56.00 Z"/>
</g>
<g fill="#E1D0BB" fill-opacity="0.60" stroke="None">
<path d="
M 33.00 88.00 
C 33.09 86.00 33.09 82.07 33.00 80.00
C 32.86 82.61 32.86 85.39 33.00 88.00 Z"/>
</g>
<g fill="#EDE2D6" fill-opacity="0.35" stroke="None">
<path d="
M 54.00 88.00 
C 53.82 85.42 53.82 82.58 54.00 80.00
C 53.49 82.86 53.48 85.08 54.00 88.00 Z"/>
</g>
<g fill="#FBF7F1" fill-opacity="0.09" stroke="None">
<path d="
M 163.00 87.00 
C 163.21 84.87 163.21 82.19 163.00 80.00
C 163.00 82.33 163.00 84.67 163.00 87.00 Z"/>
</g>
<g fill="#F1E8DE" fill-opacity="0.28" stroke="None">
<path d="
M 71.00 120.00 
C 68.82 118.33 64.71 114.23 63.00 112.00
C 64.89 114.90 68.05 118.08 71.00 120.00 Z"/>
</g>
<g fill="#FBF6F3" fill-opacity="0.10" stroke="None">
<path d="
M 57.00 135.00 
C 52.56 130.89 47.81 125.55 44.00 121.00
C 47.42 126.19 51.99 131.05 57.00 135.00 Z"/>
</g>
<g fill="#FBF8F4" fill-opacity="0.09" stroke="None">
<path d="
M 192.00 163.00 
C 189.03 157.89 182.18 153.97 178.75 149.25 C 175.33 144.52 167.96 140.50 165.25 135.75 C 162.54 131.00 152.40 127.25 152.00 122.00
C 151.28 126.23 161.23 131.17 164.25 135.75 C 167.26 140.34 174.86 144.96 178.25 149.75 C 181.63 154.55 188.73 158.24 192.00 163.00 Z"/>
</g>
<g fill="#F7F0E9" fill-opacity="0.18" stroke="None">
<path d="
M 105.00 128.00 
C 100.94 128.45 96.08 128.32 92.00 128.00
C 96.25 128.82 100.67 129.01 105.00 128.00 Z"/>
</g>
<g fill="#EEE4D9" fill-opacity="0.33" stroke="None">
<path d="
M 134.00 139.00 
C 140.11 137.13 150.36 150.36 155.00 155.00
C 149.71 149.71 140.61 135.54 134.00 139.00 Z"/>
</g>
<g fill="#E5D7C6" fill-opacity="0.50" stroke="None">
<path d="
M 178.00 178.00 
C 173.89 175.73 170.64 169.44 166.75 166.25 C 162.86 163.05 158.56 158.56 155.00 155.00
C 161.54 161.54 169.44 174.04 178.00 178.00 Z"/>
</g>
</svg>