<svg xmlns="http://www.w3.org/2000/svg" xmlns:v="https://svgstorm.com"
viewBox = "0 0 572 434"
width="572"
height="434">
<g fill="None" fill-opacity="0.0" stroke="#000000" stroke-opacity="0.00" stroke-width="0.3"><path d="
M 0.00 434.00 
L 572.00 434.00
L 572.00 0.00
L 0.00 0.00
L 0.00 434.00
M 148.00 67.00 
C 156.29 67.17 163.41 69.10 170.00 74.00
C 172.90 76.15 174.13 78.44 176.00 81.00
C 178.95 83.83 180.52 86.37 185.00 87.00
C 189.34 87.19 197.64 86.96 202.00 87.00
C 213.50 85.99 226.72 87.00 239.00 87.00
C 250.63 85.87 264.44 85.88 276.00 87.00
C 306.00 87.00 336.00 87.00 366.00 87.00
C 370.40 86.57 375.66 86.58 380.00 87.00
C 395.33 87.00 410.67 87.00 426.00 87.00
C 429.51 86.66 433.52 86.58 437.00 87.00
C 441.91 87.10 445.83 87.44 450.00 90.00
C 453.20 91.96 457.08 95.86 459.00 99.00
C 467.21 112.40 458.48 128.74 455.22 142.22 C 451.97 155.70 448.26 171.69 444.02 185.02 C 439.79 198.36 438.94 214.06 431.00 226.00
C 428.07 230.41 424.26 234.83 420.00 238.00
C 395.15 256.47 358.79 244.91 328.00 247.00 C 297.21 249.09 258.51 247.00 227.00 247.00
C 223.61 247.33 217.29 249.65 214.00 247.00
C 210.39 249.49 214.96 261.15 215.93 266.07 C 216.90 270.99 223.38 276.25 229.67 276.33 C 235.96 276.41 245.69 277.40 253.00 277.00 C 260.31 276.60 269.35 277.17 277.00 277.00 C 284.65 276.83 293.24 277.07 301.00 277.00 C 308.76 276.93 316.18 276.99 324.00 277.00 C 331.82 277.01 340.15 276.91 348.00 277.00 C 355.85 277.09 364.21 276.78 372.00 277.00 C 379.79 277.22 388.41 276.51 396.00 277.00 C 403.59 277.49 411.54 275.04 418.00 279.00
C 420.66 280.63 422.93 283.15 424.00 286.00
C 433.05 310.22 400.20 307.89 383.00 307.00 C 365.80 306.11 338.17 307.32 319.00 307.00 C 299.83 306.68 274.68 306.96 255.00 307.00 C 235.32 307.04 216.68 309.38 201.00 297.00
C 198.36 294.92 196.04 292.59 194.00 290.00
C 187.07 281.22 185.14 271.71 183.07 260.93 C 181.01 250.14 179.19 237.86 177.00 227.00 C 174.82 216.14 172.51 204.47 170.22 193.78 C 167.93 183.09 166.52 170.18 164.01 159.99 C 161.49 149.80 160.34 135.78 157.22 126.78 C 154.10 117.78 157.68 98.99 147.00 97.00
C 139.42 96.31 128.84 98.12 121.00 97.00
C 100.89 96.23 99.66 68.10 120.00 67.00
C 128.69 65.59 139.39 65.96 148.00 67.00
M 222.00 327.00 
C 259.87 333.79 245.98 397.01 208.00 387.00 C 170.02 376.99 183.59 320.12 222.00 327.00
M 402.00 327.00 
C 439.73 333.76 426.40 396.57 388.33 386.67 C 350.26 376.77 363.10 320.03 402.00 327.00 Z"/>
</g>
<g fill="None" fill-opacity="0.0" stroke="#FFFFFF" stroke-opacity="0.00" stroke-width="0.3"><path d="
M 120.00 67.00 
C 129.23 66.50 138.75 66.82 148.00 67.00
C 139.39 65.96 128.69 65.59 120.00 67.00 Z"/>
</g>
<g fill="None" fill-opacity="0.0" stroke="#D0B491" stroke-opacity="0.99" stroke-width="0.3"><path d="
M 121.00 97.00 
C 129.33 97.32 138.83 95.48 147.00 97.00
C 157.68 98.99 154.10 117.78 157.22 126.78 C 160.34 135.78 161.49 149.80 164.01 159.99 C 166.52 170.18 167.93 183.09 170.22 193.78 C 172.51 204.47 174.82 216.14 177.00 227.00 C 179.19 237.86 181.01 250.14 183.07 260.93 C 185.14 271.71 187.07 281.22 194.00 290.00
C 196.04 292.21 198.85 295.01 201.00 297.00
C 216.68 309.38 235.32 307.04 255.00 307.00 C 274.68 306.96 299.83 306.68 319.00 307.00 C 338.17 307.32 365.80 306.11 383.00 307.00 C 400.20 307.89 433.05 310.22 424.00 286.00
C 423.26 284.48 419.51 280.09 418.00 279.00
C 411.54 275.04 403.59 277.49 396.00 277.00 C 388.41 276.51 379.79 277.22 372.00 277.00 C 364.21 276.78 355.85 277.09 348.00 277.00 C 340.15 276.91 331.82 277.01 324.00 277.00 C 316.18 276.99 308.76 276.93 301.00 277.00 C 293.24 277.07 284.65 276.83 277.00 277.00 C 269.35 277.17 260.31 276.60 253.00 277.00 C 245.69 277.40 235.96 276.41 229.67 276.33 C 223.38 276.25 216.90 270.99 215.93 266.07 C 214.96 261.15 210.39 249.49 214.00 247.00
C 216.08 245.57 224.36 247.00 227.00 247.00
C 258.51 247.00 297.21 249.09 328.00 247.00 C 358.79 244.91 395.15 256.47 420.00 238.00
C 423.70 234.78 428.07 229.74 431.00 226.00
C 438.94 214.06 439.79 198.36 444.02 185.02 C 448.26 171.69 451.97 155.70 455.22 142.22 C 458.48 128.74 467.21 112.40 459.00 99.00
C 457.26 96.58 452.36 91.70 450.00 90.00
C 445.83 87.44 441.91 87.10 437.00 87.00
C 433.34 86.93 429.66 87.00 426.00 87.00
C 410.67 87.00 395.33 87.00 380.00 87.00
C 375.33 87.00 370.67 87.00 366.00 87.00
C 336.00 87.00 306.00 87.00 276.00 87.00
C 263.67 87.00 251.33 87.00 239.00 87.00
C 226.72 87.00 213.50 85.99 202.00 87.00
C 196.79 87.46 190.18 87.72 185.00 87.00
C 180.52 86.37 178.95 83.83 176.00 81.00
C 173.70 78.79 172.15 76.15 170.00 74.00
C 163.41 69.10 156.29 67.17 148.00 67.00
C 138.75 66.82 129.23 66.50 120.00 67.00
C 99.66 68.10 100.89 96.23 121.00 97.00 Z"/>
</g>
<g fill="None" fill-opacity="0.0" stroke="#F0E6D9" stroke-opacity="0.32" stroke-width="0.3"><path d="
M 176.00 81.00 
C 174.13 78.44 172.90 76.15 170.00 74.00
C 172.15 76.15 173.70 78.79 176.00 81.00 Z"/>
</g>
<g fill="None" fill-opacity="0.0" stroke="#FFFFFF" stroke-opacity="0.00" stroke-width="0.3"><path d="
M 185.00 87.00 
C 190.18 87.72 196.79 87.46 202.00 87.00
C 197.64 86.96 189.34 87.19 185.00 87.00 Z"/>
</g>
<g fill="None" fill-opacity="0.0" stroke="#FFFFFF" stroke-opacity="0.00" stroke-width="0.3"><path d="
M 239.00 87.00 
C 251.33 87.00 263.67 87.00 276.00 87.00
C 264.44 85.88 250.63 85.87 239.00 87.00 Z"/>
</g>
<g fill="None" fill-opacity="0.0" stroke="#FFFFFF" stroke-opacity="0.00" stroke-width="0.3"><path d="
M 366.00 87.00 
C 370.67 87.00 375.33 87.00 380.00 87.00
C 375.66 86.58 370.40 86.57 366.00 87.00 Z"/>
</g>
<g fill="None" fill-opacity="0.0" stroke="#FFFFFF" stroke-opacity="0.00" stroke-width="0.3"><path d="
M 426.00 87.00 
C 429.66 87.00 433.34 86.93 437.00 87.00
C 433.52 86.58 429.51 86.66 426.00 87.00 Z"/>
</g>
<g fill="None" fill-opacity="0.0" stroke="#EEE5DA" stroke-opacity="0.31" stroke-width="0.3"><path d="
M 459.00 99.00 
C 457.08 95.86 453.20 91.96 450.00 90.00
C 452.36 91.70 457.26 96.58 459.00 99.00 Z"/>
</g>
<g fill="None" fill-opacity="0.0" stroke="#FFFFFF" stroke-opacity="0.00" stroke-width="0.3"><path d="
M 147.00 97.00 
C 138.83 95.48 129.33 97.32 121.00 97.00
C 128.84 98.12 139.42 96.31 147.00 97.00 Z"/>
</g>
<g fill="None" fill-opacity="0.0" stroke="#F7F3EE" stroke-opacity="0.14" stroke-width="0.3"><path d="
M 420.00 238.00 
C 424.26 234.83 428.07 230.41 431.00 226.00
C 428.07 229.74 423.70 234.78 420.00 238.00 Z"/>
</g>
<g fill="None" fill-opacity="0.0" stroke="#FFFFFF" stroke-opacity="0.00" stroke-width="0.3"><path d="
M 227.00 247.00 
C 224.36 247.00 216.08 245.57 214.00 247.00
C 217.29 249.65 223.61 247.33 227.00 247.00 Z"/>
</g>
<g fill="None" fill-opacity="0.0" stroke="#E9DDCF" stroke-opacity="0.42" stroke-width="0.3"><path d="
M 424.00 286.00 
C 422.93 283.15 420.66 280.63 418.00 279.00
C 419.51 280.09 423.26 284.48 424.00 286.00 Z"/>
</g>
<g fill="None" fill-opacity="0.0" stroke="#FCF9F9" stroke-opacity="0.07" stroke-width="0.3"><path d="
M 201.00 297.00 
C 198.85 295.01 196.04 292.21 194.00 290.00
C 196.04 292.59 198.36 294.92 201.00 297.00 Z"/>
</g>
<g fill="None" fill-opacity="0.0" stroke="#D1B694" stroke-opacity="0.96" stroke-width="0.3"><path d="
M 222.00 327.00 
C 183.59 320.12 170.02 376.99 208.00 387.00 C 245.98 397.01 259.87 333.79 222.00 327.00 Z"/>
</g>
<g fill="None" fill-opacity="0.0" stroke="#D1B694" stroke-opacity="0.96" stroke-width="0.3"><path d="
M 402.00 327.00 
C 363.10 320.03 350.26 376.77 388.33 386.67 C 426.40 396.57 439.73 333.76 402.00 327.00 Z"/>
</g>
<g fill="#000000" fill-opacity="0.00" stroke="None">
<path d="
M 0.00 434.00 
L 572.00 434.00
L 572.00 0.00
L 0.00 0.00
L 0.00 434.00
M 148.00 67.00 
C 156.29 67.17 163.41 69.10 170.00 74.00
C 172.90 76.15 174.13 78.44 176.00 81.00
C 178.95 83.83 180.52 86.37 185.00 87.00
C 189.34 87.19 197.64 86.96 202.00 87.00
C 213.50 85.99 226.72 87.00 239.00 87.00
C 250.63 85.87 264.44 85.88 276.00 87.00
C 306.00 87.00 336.00 87.00 366.00 87.00
C 370.40 86.57 375.66 86.58 380.00 87.00
C 395.33 87.00 410.67 87.00 426.00 87.00
C 429.51 86.66 433.52 86.58 437.00 87.00
C 441.91 87.10 445.83 87.44 450.00 90.00
C 453.20 91.96 457.08 95.86 459.00 99.00
C 467.21 112.40 458.48 128.74 455.22 142.22 C 451.97 155.70 448.26 171.69 444.02 185.02 C 439.79 198.36 438.94 214.06 431.00 226.00
C 428.07 230.41 424.26 234.83 420.00 238.00
C 395.15 256.47 358.79 244.91 328.00 247.00 C 297.21 249.09 258.51 247.00 227.00 247.00
C 223.61 247.33 217.29 249.65 214.00 247.00
C 210.39 249.49 214.96 261.15 215.93 266.07 C 216.90 270.99 223.38 276.25 229.67 276.33 C 235.96 276.41 245.69 277.40 253.00 277.00 C 260.31 276.60 269.35 277.17 277.00 277.00 C 284.65 276.83 293.24 277.07 301.00 277.00 C 308.76 276.93 316.18 276.99 324.00 277.00 C 331.82 277.01 340.15 276.91 348.00 277.00 C 355.85 277.09 364.21 276.78 372.00 277.00 C 379.79 277.22 388.41 276.51 396.00 277.00 C 403.59 277.49 411.54 275.04 418.00 279.00
C 420.66 280.63 422.93 283.15 424.00 286.00
C 433.05 310.22 400.20 307.89 383.00 307.00 C 365.80 306.11 338.17 307.32 319.00 307.00 C 299.83 306.68 274.68 306.96 255.00 307.00 C 235.32 307.04 216.68 309.38 201.00 297.00
C 198.36 294.92 196.04 292.59 194.00 290.00
C 187.07 281.22 185.14 271.71 183.07 260.93 C 181.01 250.14 179.19 237.86 177.00 227.00 C 174.82 216.14 172.51 204.47 170.22 193.78 C 167.93 183.09 166.52 170.18 164.01 159.99 C 161.49 149.80 160.34 135.78 157.22 126.78 C 154.10 117.78 157.68 98.99 147.00 97.00
C 139.42 96.31 128.84 98.12 121.00 97.00
C 100.89 96.23 99.66 68.10 120.00 67.00
C 128.69 65.59 139.39 65.96 148.00 67.00
M 222.00 327.00 
C 259.87 333.79 245.98 397.01 208.00 387.00 C 170.02 376.99 183.59 320.12 222.00 327.00
M 402.00 327.00 
C 439.73 333.76 426.40 396.57 388.33 386.67 C 350.26 376.77 363.10 320.03 402.00 327.00 Z"/>
</g>
<g fill="#FFFFFF" fill-opacity="0.00" stroke="None">
<path d="
M 120.00 67.00 
C 129.23 66.50 138.75 66.82 148.00 67.00
C 139.39 65.96 128.69 65.59 120.00 67.00 Z"/>
</g>
<g fill="#D0B491" fill-opacity="0.99" stroke="None">
<path d="
M 121.00 97.00 
C 129.33 97.32 138.83 95.48 147.00 97.00
C 157.68 98.99 154.10 117.78 157.22 126.78 C 160.34 135.78 161.49 149.80 164.01 159.99 C 166.52 170.18 167.93 183.09 170.22 193.78 C 172.51 204.47 174.82 216.14 177.00 227.00 C 179.19 237.86 181.01 250.14 183.07 260.93 C 185.14 271.71 187.07 281.22 194.00 290.00
C 196.04 292.21 198.85 295.01 201.00 297.00
C 216.68 309.38 235.32 307.04 255.00 307.00 C 274.68 306.96 299.83 306.68 319.00 307.00 C 338.17 307.32 365.80 306.11 383.00 307.00 C 400.20 307.89 433.05 310.22 424.00 286.00
C 423.26 284.48 419.51 280.09 418.00 279.00
C 411.54 275.04 403.59 277.49 396.00 277.00 C 388.41 276.51 379.79 277.22 372.00 277.00 C 364.21 276.78 355.85 277.09 348.00 277.00 C 340.15 276.91 331.82 277.01 324.00 277.00 C 316.18 276.99 308.76 276.93 301.00 277.00 C 293.24 277.07 284.65 276.83 277.00 277.00 C 269.35 277.17 260.31 276.60 253.00 277.00 C 245.69 277.40 235.96 276.41 229.67 276.33 C 223.38 276.25 216.90 270.99 215.93 266.07 C 214.96 261.15 210.39 249.49 214.00 247.00
C 216.08 245.57 224.36 247.00 227.00 247.00
C 258.51 247.00 297.21 249.09 328.00 247.00 C 358.79 244.91 395.15 256.47 420.00 238.00
C 423.70 234.78 428.07 229.74 431.00 226.00
C 438.94 214.06 439.79 198.36 444.02 185.02 C 448.26 171.69 451.97 155.70 455.22 142.22 C 458.48 128.74 467.21 112.40 459.00 99.00
C 457.26 96.58 452.36 91.70 450.00 90.00
C 445.83 87.44 441.91 87.10 437.00 87.00
C 433.34 86.93 429.66 87.00 426.00 87.00
C 410.67 87.00 395.33 87.00 380.00 87.00
C 375.33 87.00 370.67 87.00 366.00 87.00
C 336.00 87.00 306.00 87.00 276.00 87.00
C 263.67 87.00 251.33 87.00 239.00 87.00
C 226.72 87.00 213.50 85.99 202.00 87.00
C 196.79 87.46 190.18 87.72 185.00 87.00
C 180.52 86.37 178.95 83.83 176.00 81.00
C 173.70 78.79 172.15 76.15 170.00 74.00
C 163.41 69.10 156.29 67.17 148.00 67.00
C 138.75 66.82 129.23 66.50 120.00 67.00
C 99.66 68.10 100.89 96.23 121.00 97.00 Z"/>
</g>
<g fill="#F0E6D9" fill-opacity="0.32" stroke="None">
<path d="
M 176.00 81.00 
C 174.13 78.44 172.90 76.15 170.00 74.00
C 172.15 76.15 173.70 78.79 176.00 81.00 Z"/>
</g>
<g fill="#FFFFFF" fill-opacity="0.00" stroke="None">
<path d="
M 185.00 87.00 
C 190.18 87.72 196.79 87.46 202.00 87.00
C 197.64 86.96 189.34 87.19 185.00 87.00 Z"/>
</g>
<g fill="#FFFFFF" fill-opacity="0.00" stroke="None">
<path d="
M 239.00 87.00 
C 251.33 87.00 263.67 87.00 276.00 87.00
C 264.44 85.88 250.63 85.87 239.00 87.00 Z"/>
</g>
<g fill="#FFFFFF" fill-opacity="0.00" stroke="None">
<path d="
M 366.00 87.00 
C 370.67 87.00 375.33 87.00 380.00 87.00
C 375.66 86.58 370.40 86.57 366.00 87.00 Z"/>
</g>
<g fill="#FFFFFF" fill-opacity="0.00" stroke="None">
<path d="
M 426.00 87.00 
C 429.66 87.00 433.34 86.93 437.00 87.00
C 433.52 86.58 429.51 86.66 426.00 87.00 Z"/>
</g>
<g fill="#EEE5DA" fill-opacity="0.31" stroke="None">
<path d="
M 459.00 99.00 
C 457.08 95.86 453.20 91.96 450.00 90.00
C 452.36 91.70 457.26 96.58 459.00 99.00 Z"/>
</g>
<g fill="#FFFFFF" fill-opacity="0.00" stroke="None">
<path d="
M 147.00 97.00 
C 138.83 95.48 129.33 97.32 121.00 97.00
C 128.84 98.12 139.42 96.31 147.00 97.00 Z"/>
</g>
<g fill="#F7F3EE" fill-opacity="0.14" stroke="None">
<path d="
M 420.00 238.00 
C 424.26 234.83 428.07 230.41 431.00 226.00
C 428.07 229.74 423.70 234.78 420.00 238.00 Z"/>
</g>
<g fill="#FFFFFF" fill-opacity="0.00" stroke="None">
<path d="
M 227.00 247.00 
C 224.36 247.00 216.08 245.57 214.00 247.00
C 217.29 249.65 223.61 247.33 227.00 247.00 Z"/>
</g>
<g fill="#E9DDCF" fill-opacity="0.42" stroke="None">
<path d="
M 424.00 286.00 
C 422.93 283.15 420.66 280.63 418.00 279.00
C 419.51 280.09 423.26 284.48 424.00 286.00 Z"/>
</g>
<g fill="#FCF9F9" fill-opacity="0.07" stroke="None">
<path d="
M 201.00 297.00 
C 198.85 295.01 196.04 292.21 194.00 290.00
C 196.04 292.59 198.36 294.92 201.00 297.00 Z"/>
</g>
<g fill="#D1B694" fill-opacity="0.96" stroke="None">
<path d="
M 222.00 327.00 
C 183.59 320.12 170.02 376.99 208.00 387.00 C 245.98 397.01 259.87 333.79 222.00 327.00 Z"/>
</g>
<g fill="#D1B694" fill-opacity="0.96" stroke="None">
<path d="
M 402.00 327.00 
C 363.10 320.03 350.26 376.77 388.33 386.67 C 426.40 396.57 439.73 333.76 402.00 327.00 Z"/>
</g>
</svg>