<svg xmlns="http://www.w3.org/2000/svg" xmlns:v="https://svgstorm.com"
viewBox = "0 0 374 386"
width="374"
height="386">
<g fill="None" fill-opacity="0.0" stroke="#000000" stroke-opacity="0.00" stroke-width="0.3"><path d="
M 0.00 386.00 
L 374.00 386.00
L 374.00 0.00
L 0.00 0.00
L 0.00 386.00
M 193.00 41.00 
C 206.43 41.91 218.02 47.47 229.00 55.00
C 236.58 60.20 243.83 67.47 249.00 75.00
C 257.19 86.94 263.00 100.05 263.00 115.00
C 263.00 115.50 263.00 116.50 263.00 117.00
C 264.28 120.02 263.63 122.14 263.00 125.00
C 263.00 126.00 263.00 127.00 263.00 128.00
C 263.00 129.00 263.00 130.00 263.00 131.00
C 263.02 134.58 261.83 137.11 261.00 140.00
C 259.10 151.02 254.01 161.12 247.00 170.00
C 242.54 175.64 237.75 180.72 232.00 185.00
C 219.06 194.62 204.17 200.22 188.00 201.00
C 184.45 201.17 182.48 201.14 179.00 201.00
C 175.78 200.87 172.57 200.50 170.00 200.00
C 157.15 198.98 144.24 192.62 134.00 185.00
C 129.27 181.48 124.61 176.57 121.00 172.00
C 109.77 157.77 105.15 143.82 103.00 126.00
C 102.33 120.47 103.35 115.38 104.00 110.00
C 104.31 94.69 112.21 80.46 122.00 69.00
C 125.31 65.13 128.94 61.02 133.00 58.00
C 143.75 50.00 155.54 43.30 169.00 42.00
C 176.75 40.34 185.01 39.57 193.00 41.00
M 213.00 231.00 
C 213.50 231.00 214.50 231.00 215.00 231.00
C 217.77 231.00 220.96 231.80 223.00 232.00
C 245.18 232.00 267.37 242.79 284.00 257.00
C 288.98 261.25 293.79 266.07 298.00 271.00
C 311.28 286.54 321.22 307.46 322.00 328.00
C 322.70 333.79 324.33 338.98 323.00 345.00
C 321.53 351.65 316.82 360.27 309.00 361.00
C 307.69 361.12 306.31 361.00 305.00 361.00
C 279.20 364.52 250.73 361.79 224.00 362.00 C 197.27 362.21 168.66 363.49 142.00 362.00 C 115.34 360.51 85.39 366.57 60.00 361.00
C 59.01 361.00 57.99 361.05 57.00 361.00
C 50.82 360.71 45.67 353.29 44.00 348.00
C 42.18 342.24 43.19 334.67 44.00 329.00
C 44.56 314.35 50.30 299.70 57.00 287.00
C 58.66 283.85 60.98 281.63 63.00 279.00
C 65.30 275.21 67.96 271.55 71.00 268.00
C 74.07 264.40 77.45 261.03 81.00 258.00
C 82.94 256.34 84.99 254.49 87.00 253.00
C 103.11 241.02 122.62 232.41 143.00 232.00
C 144.78 231.83 147.55 230.99 150.00 231.00
C 151.33 231.01 152.67 231.00 154.00 231.00
C 162.60 229.83 173.70 229.10 183.00 230.00 C 192.30 230.90 204.80 227.52 213.00 231.00 Z"/>
</g>
<g fill="None" fill-opacity="0.0" stroke="#F8F5F0" stroke-opacity="0.14" stroke-width="0.3"><path d="
M 169.00 42.00 
C 176.78 41.25 184.90 40.45 193.00 41.00
C 185.01 39.57 176.75 40.34 169.00 42.00 Z"/>
</g>
<g fill="None" fill-opacity="0.0" stroke="#D0B492" stroke-opacity="0.99" stroke-width="0.3"><path d="
M 169.00 42.00 
C 155.54 43.30 143.75 50.00 133.00 58.00
C 129.33 61.20 125.43 65.57 122.00 69.00
C 112.21 80.46 104.31 94.69 104.00 110.00
C 103.89 115.41 102.97 121.68 103.00 126.00
C 105.15 143.82 109.77 157.77 121.00 172.00
C 124.87 176.18 129.77 181.31 134.00 185.00
C 144.24 192.62 157.15 198.98 170.00 200.00
C 172.96 200.23 176.03 200.00 179.00 200.00
C 182.10 200.00 185.64 200.77 188.00 201.00
C 204.17 200.22 219.06 194.62 232.00 185.00
C 236.98 180.66 242.55 174.81 247.00 170.00
C 254.01 161.12 259.10 151.02 261.00 140.00
C 261.51 137.03 262.55 133.51 263.00 131.00
C 263.00 130.00 263.00 129.00 263.00 128.00
C 262.05 123.66 262.60 119.17 263.00 115.00
C 263.00 100.05 257.19 86.94 249.00 75.00
C 243.10 68.16 235.79 60.86 229.00 55.00
C 218.02 47.47 206.43 41.91 193.00 41.00
C 184.90 40.45 176.78 41.25 169.00 42.00 Z"/>
</g>
<g fill="None" fill-opacity="0.0" stroke="#F2EDE4" stroke-opacity="0.22" stroke-width="0.3"><path d="
M 249.00 75.00 
C 243.83 67.47 236.58 60.20 229.00 55.00
C 235.79 60.86 243.10 68.16 249.00 75.00 Z"/>
</g>
<g fill="None" fill-opacity="0.0" stroke="#F9F8F3" stroke-opacity="0.11" stroke-width="0.3"><path d="
M 122.00 69.00 
C 125.43 65.57 129.33 61.20 133.00 58.00
C 128.94 61.02 125.31 65.13 122.00 69.00 Z"/>
</g>
<g fill="None" fill-opacity="0.0" stroke="#F6EFEA" stroke-opacity="0.21" stroke-width="0.3"><path d="
M 103.00 126.00 
C 102.97 121.68 103.89 115.41 104.00 110.00
C 103.35 115.38 102.33 120.47 103.00 126.00 Z"/>
</g>
<g fill="None" fill-opacity="0.0" stroke="#DAC5AA" stroke-opacity="0.75" stroke-width="0.3"><path d="
M 263.00 128.00 
C 263.00 127.00 263.00 126.00 263.00 125.00
C 263.00 122.33 263.00 119.67 263.00 117.00
C 263.00 116.50 263.00 115.50 263.00 115.00
C 262.60 119.17 262.05 123.66 263.00 128.00 Z"/>
</g>
<g fill="None" fill-opacity="0.0" stroke="#FFFBFB" stroke-opacity="0.04" stroke-width="0.3"><path d="
M 263.00 125.00 
C 263.63 122.14 264.28 120.02 263.00 117.00
C 263.00 119.67 263.00 122.33 263.00 125.00 Z"/>
</g>
<g fill="None" fill-opacity="0.0" stroke="#F2EEE7" stroke-opacity="0.21" stroke-width="0.3"><path d="
M 261.00 140.00 
C 261.83 137.11 263.02 134.58 263.00 131.00
C 262.55 133.51 261.51 137.03 261.00 140.00 Z"/>
</g>
<g fill="None" fill-opacity="0.0" stroke="#F2EBE1" stroke-opacity="0.25" stroke-width="0.3"><path d="
M 232.00 185.00 
C 237.75 180.72 242.54 175.64 247.00 170.00
C 242.55 174.81 236.98 180.66 232.00 185.00 Z"/>
</g>
<g fill="None" fill-opacity="0.0" stroke="#FAF7F4" stroke-opacity="0.10" stroke-width="0.3"><path d="
M 134.00 185.00 
C 129.77 181.31 124.87 176.18 121.00 172.00
C 124.61 176.57 129.27 181.48 134.00 185.00 Z"/>
</g>
<g fill="None" fill-opacity="0.0" stroke="#F2EAE2" stroke-opacity="0.25" stroke-width="0.3"><path d="
M 179.00 201.00 
C 178.83 200.94 179.00 200.00 179.00 200.00
C 176.03 200.00 172.96 200.23 170.00 200.00
C 172.57 200.50 175.78 200.87 179.00 201.00 Z"/>
</g>
<g fill="None" fill-opacity="0.0" stroke="#E4D5C1" stroke-opacity="0.56" stroke-width="0.3"><path d="
M 179.00 201.00 
C 182.48 201.14 184.45 201.17 188.00 201.00
C 185.64 200.77 182.10 200.00 179.00 200.00
C 179.00 200.00 178.83 200.94 179.00 201.00 Z"/>
</g>
<g fill="None" fill-opacity="0.0" stroke="#F4F3EE" stroke-opacity="0.17" stroke-width="0.3"><path d="
M 154.00 231.00 
C 173.67 231.00 193.33 231.00 213.00 231.00
C 204.80 227.52 192.30 230.90 183.00 230.00 C 173.70 229.10 162.60 229.83 154.00 231.00 Z"/>
</g>
<g fill="None" fill-opacity="0.0" stroke="#F8F2EF" stroke-opacity="0.15" stroke-width="0.3"><path d="
M 143.00 232.00 
C 145.50 231.95 148.18 231.25 150.00 231.00
C 147.55 230.99 144.78 231.83 143.00 232.00 Z"/>
</g>
<g fill="None" fill-opacity="0.0" stroke="#D0B491" stroke-opacity="0.99" stroke-width="0.3"><path d="
M 143.00 232.00 
C 122.62 232.41 103.11 241.02 87.00 253.00
C 84.62 255.08 82.42 257.93 80.00 260.00
C 77.04 262.53 73.70 265.30 71.00 268.00
C 67.96 271.55 65.30 275.21 63.00 279.00
C 61.22 281.93 58.76 284.38 57.00 287.00
C 50.30 299.70 44.56 314.35 44.00 329.00
C 43.78 334.88 42.97 342.23 44.00 348.00
C 45.67 353.29 50.82 360.71 57.00 361.00
C 76.77 362.45 98.23 358.90 119.00 360.00 C 139.77 361.10 162.10 359.90 183.00 360.00 C 203.90 360.10 225.16 360.87 246.00 360.00 C 266.84 359.13 289.08 361.93 309.00 361.00
C 316.82 360.27 321.53 351.65 323.00 345.00
C 323.61 339.10 322.22 333.74 322.00 328.00
C 321.22 307.46 311.28 286.54 298.00 271.00
C 293.41 266.41 288.54 261.54 284.00 257.00
C 267.37 242.79 245.18 232.00 223.00 232.00
C 219.95 232.00 217.41 232.02 215.00 231.00
C 214.50 231.00 213.50 231.00 213.00 231.00
C 193.33 231.00 173.67 231.00 154.00 231.00
C 152.67 231.00 151.33 231.01 150.00 231.00
C 148.18 231.25 145.50 231.95 143.00 232.00 Z"/>
</g>
<g fill="None" fill-opacity="0.0" stroke="#F4EFE9" stroke-opacity="0.20" stroke-width="0.3"><path d="
M 223.00 232.00 
C 220.96 231.80 217.77 231.00 215.00 231.00
C 217.41 232.02 219.95 232.00 223.00 232.00 Z"/>
</g>
<g fill="None" fill-opacity="0.0" stroke="#F2EAE1" stroke-opacity="0.27" stroke-width="0.3"><path d="
M 81.00 258.00 
C 80.54 258.49 80.40 259.57 80.00 260.00
C 82.42 257.93 84.62 255.08 87.00 253.00
C 84.99 254.49 82.94 256.34 81.00 258.00 Z"/>
</g>
<g fill="None" fill-opacity="0.0" stroke="#F5F0E9" stroke-opacity="0.18" stroke-width="0.3"><path d="
M 298.00 271.00 
C 293.79 266.07 288.98 261.25 284.00 257.00
C 288.54 261.54 293.41 266.41 298.00 271.00 Z"/>
</g>
<g fill="None" fill-opacity="0.0" stroke="#FBF8F6" stroke-opacity="0.08" stroke-width="0.3"><path d="
M 71.00 268.00 
C 73.70 265.30 77.04 262.53 80.00 260.00
C 80.40 259.57 80.54 258.49 81.00 258.00
C 77.45 261.03 74.07 264.40 71.00 268.00 Z"/>
</g>
<g fill="None" fill-opacity="0.0" stroke="#F4F0EB" stroke-opacity="0.18" stroke-width="0.3"><path d="
M 57.00 287.00 
C 58.76 284.38 61.22 281.93 63.00 279.00
C 60.98 281.63 58.66 283.85 57.00 287.00 Z"/>
</g>
<g fill="None" fill-opacity="0.0" stroke="#F5F1EA" stroke-opacity="0.18" stroke-width="0.3"><path d="
M 323.00 345.00 
C 324.33 338.98 322.70 333.79 322.00 328.00
C 322.22 333.74 323.61 339.10 323.00 345.00 Z"/>
</g>
<g fill="None" fill-opacity="0.0" stroke="#EADECE" stroke-opacity="0.44" stroke-width="0.3"><path d="
M 44.00 348.00 
C 42.97 342.23 43.78 334.88 44.00 329.00
C 43.19 334.67 42.18 342.24 44.00 348.00 Z"/>
</g>
<g fill="None" fill-opacity="0.0" stroke="#DAC4A9" stroke-opacity="0.78" stroke-width="0.3"><path d="
M 57.00 361.00 
C 57.99 361.05 59.01 361.00 60.00 361.00
C 141.67 361.00 223.33 361.00 305.00 361.00
C 306.31 361.00 307.69 361.12 309.00 361.00
C 289.08 361.93 266.84 359.13 246.00 360.00 C 225.16 360.87 203.90 360.10 183.00 360.00 C 162.10 359.90 139.77 361.10 119.00 360.00 C 98.23 358.90 76.77 362.45 57.00 361.00 Z"/>
</g>
<g fill="None" fill-opacity="0.0" stroke="#FFFFFF" stroke-opacity="0.04" stroke-width="0.3"><path d="
M 305.00 361.00 
C 223.33 361.00 141.67 361.00 60.00 361.00
C 85.39 366.57 115.34 360.51 142.00 362.00 C 168.66 363.49 197.27 362.21 224.00 362.00 C 250.73 361.79 279.20 364.52 305.00 361.00 Z"/>
</g>
<g fill="#000000" fill-opacity="0.00" stroke="None">
<path d="
M 0.00 386.00 
L 374.00 386.00
L 374.00 0.00
L 0.00 0.00
L 0.00 386.00
M 193.00 41.00 
C 206.43 41.91 218.02 47.47 229.00 55.00
C 236.58 60.20 243.83 67.47 249.00 75.00
C 257.19 86.94 263.00 100.05 263.00 115.00
C 263.00 115.50 263.00 116.50 263.00 117.00
C 264.28 120.02 263.63 122.14 263.00 125.00
C 263.00 126.00 263.00 127.00 263.00 128.00
C 263.00 129.00 263.00 130.00 263.00 131.00
C 263.02 134.58 261.83 137.11 261.00 140.00
C 259.10 151.02 254.01 161.12 247.00 170.00
C 242.54 175.64 237.75 180.72 232.00 185.00
C 219.06 194.62 204.17 200.22 188.00 201.00
C 184.45 201.17 182.48 201.14 179.00 201.00
C 175.78 200.87 172.57 200.50 170.00 200.00
C 157.15 198.98 144.24 192.62 134.00 185.00
C 129.27 181.48 124.61 176.57 121.00 172.00
C 109.77 157.77 105.15 143.82 103.00 126.00
C 102.33 120.47 103.35 115.38 104.00 110.00
C 104.31 94.69 112.21 80.46 122.00 69.00
C 125.31 65.13 128.94 61.02 133.00 58.00
C 143.75 50.00 155.54 43.30 169.00 42.00
C 176.75 40.34 185.01 39.57 193.00 41.00
M 213.00 231.00 
C 213.50 231.00 214.50 231.00 215.00 231.00
C 217.77 231.00 220.96 231.80 223.00 232.00
C 245.18 232.00 267.37 242.79 284.00 257.00
C 288.98 261.25 293.79 266.07 298.00 271.00
C 311.28 286.54 321.22 307.46 322.00 328.00
C 322.70 333.79 324.33 338.98 323.00 345.00
C 321.53 351.65 316.82 360.27 309.00 361.00
C 307.69 361.12 306.31 361.00 305.00 361.00
C 279.20 364.52 250.73 361.79 224.00 362.00 C 197.27 362.21 168.66 363.49 142.00 362.00 C 115.34 360.51 85.39 366.57 60.00 361.00
C 59.01 361.00 57.99 361.05 57.00 361.00
C 50.82 360.71 45.67 353.29 44.00 348.00
C 42.18 342.24 43.19 334.67 44.00 329.00
C 44.56 314.35 50.30 299.70 57.00 287.00
C 58.66 283.85 60.98 281.63 63.00 279.00
C 65.30 275.21 67.96 271.55 71.00 268.00
C 74.07 264.40 77.45 261.03 81.00 258.00
C 82.94 256.34 84.99 254.49 87.00 253.00
C 103.11 241.02 122.62 232.41 143.00 232.00
C 144.78 231.83 147.55 230.99 150.00 231.00
C 151.33 231.01 152.67 231.00 154.00 231.00
C 162.60 229.83 173.70 229.10 183.00 230.00 C 192.30 230.90 204.80 227.52 213.00 231.00 Z"/>
</g>
<g fill="#F8F5F0" fill-opacity="0.14" stroke="None">
<path d="
M 169.00 42.00 
C 176.78 41.25 184.90 40.45 193.00 41.00
C 185.01 39.57 176.75 40.34 169.00 42.00 Z"/>
</g>
<g fill="#D0B492" fill-opacity="0.99" stroke="None">
<path d="
M 169.00 42.00 
C 155.54 43.30 143.75 50.00 133.00 58.00
C 129.33 61.20 125.43 65.57 122.00 69.00
C 112.21 80.46 104.31 94.69 104.00 110.00
C 103.89 115.41 102.97 121.68 103.00 126.00
C 105.15 143.82 109.77 157.77 121.00 172.00
C 124.87 176.18 129.77 181.31 134.00 185.00
C 144.24 192.62 157.15 198.98 170.00 200.00
C 172.96 200.23 176.03 200.00 179.00 200.00
C 182.10 200.00 185.64 200.77 188.00 201.00
C 204.17 200.22 219.06 194.62 232.00 185.00
C 236.98 180.66 242.55 174.81 247.00 170.00
C 254.01 161.12 259.10 151.02 261.00 140.00
C 261.51 137.03 262.55 133.51 263.00 131.00
C 263.00 130.00 263.00 129.00 263.00 128.00
C 262.05 123.66 262.60 119.17 263.00 115.00
C 263.00 100.05 257.19 86.94 249.00 75.00
C 243.10 68.16 235.79 60.86 229.00 55.00
C 218.02 47.47 206.43 41.91 193.00 41.00
C 184.90 40.45 176.78 41.25 169.00 42.00 Z"/>
</g>
<g fill="#F2EDE4" fill-opacity="0.22" stroke="None">
<path d="
M 249.00 75.00 
C 243.83 67.47 236.58 60.20 229.00 55.00
C 235.79 60.86 243.10 68.16 249.00 75.00 Z"/>
</g>
<g fill="#F9F8F3" fill-opacity="0.11" stroke="None">
<path d="
M 122.00 69.00 
C 125.43 65.57 129.33 61.20 133.00 58.00
C 128.94 61.02 125.31 65.13 122.00 69.00 Z"/>
</g>
<g fill="#F6EFEA" fill-opacity="0.21" stroke="None">
<path d="
M 103.00 126.00 
C 102.97 121.68 103.89 115.41 104.00 110.00
C 103.35 115.38 102.33 120.47 103.00 126.00 Z"/>
</g>
<g fill="#DAC5AA" fill-opacity="0.75" stroke="None">
<path d="
M 263.00 128.00 
C 263.00 127.00 263.00 126.00 263.00 125.00
C 263.00 122.33 263.00 119.67 263.00 117.00
C 263.00 116.50 263.00 115.50 263.00 115.00
C 262.60 119.17 262.05 123.66 263.00 128.00 Z"/>
</g>
<g fill="#FFFBFB" fill-opacity="0.04" stroke="None">
<path d="
M 263.00 125.00 
C 263.63 122.14 264.28 120.02 263.00 117.00
C 263.00 119.67 263.00 122.33 263.00 125.00 Z"/>
</g>
<g fill="#F2EEE7" fill-opacity="0.21" stroke="None">
<path d="
M 261.00 140.00 
C 261.83 137.11 263.02 134.58 263.00 131.00
C 262.55 133.51 261.51 137.03 261.00 140.00 Z"/>
</g>
<g fill="#F2EBE1" fill-opacity="0.25" stroke="None">
<path d="
M 232.00 185.00 
C 237.75 180.72 242.54 175.64 247.00 170.00
C 242.55 174.81 236.98 180.66 232.00 185.00 Z"/>
</g>
<g fill="#FAF7F4" fill-opacity="0.10" stroke="None">
<path d="
M 134.00 185.00 
C 129.77 181.31 124.87 176.18 121.00 172.00
C 124.61 176.57 129.27 181.48 134.00 185.00 Z"/>
</g>
<g fill="#F2EAE2" fill-opacity="0.25" stroke="None">
<path d="
M 179.00 201.00 
C 178.83 200.94 179.00 200.00 179.00 200.00
C 176.03 200.00 172.96 200.23 170.00 200.00
C 172.57 200.50 175.78 200.87 179.00 201.00 Z"/>
</g>
<g fill="#E4D5C1" fill-opacity="0.56" stroke="None">
<path d="
M 179.00 201.00 
C 182.48 201.14 184.45 201.17 188.00 201.00
C 185.64 200.77 182.10 200.00 179.00 200.00
C 179.00 200.00 178.83 200.94 179.00 201.00 Z"/>
</g>
<g fill="#F4F3EE" fill-opacity="0.17" stroke="None">
<path d="
M 154.00 231.00 
C 173.67 231.00 193.33 231.00 213.00 231.00
C 204.80 227.52 192.30 230.90 183.00 230.00 C 173.70 229.10 162.60 229.83 154.00 231.00 Z"/>
</g>
<g fill="#F8F2EF" fill-opacity="0.15" stroke="None">
<path d="
M 143.00 232.00 
C 145.50 231.95 148.18 231.25 150.00 231.00
C 147.55 230.99 144.78 231.83 143.00 232.00 Z"/>
</g>
<g fill="#D0B491" fill-opacity="0.99" stroke="None">
<path d="
M 143.00 232.00 
C 122.62 232.41 103.11 241.02 87.00 253.00
C 84.62 255.08 82.42 257.93 80.00 260.00
C 77.04 262.53 73.70 265.30 71.00 268.00
C 67.96 271.55 65.30 275.21 63.00 279.00
C 61.22 281.93 58.76 284.38 57.00 287.00
C 50.30 299.70 44.56 314.35 44.00 329.00
C 43.78 334.88 42.97 342.23 44.00 348.00
C 45.67 353.29 50.82 360.71 57.00 361.00
C 76.77 362.45 98.23 358.90 119.00 360.00 C 139.77 361.10 162.10 359.90 183.00 360.00 C 203.90 360.10 225.16 360.87 246.00 360.00 C 266.84 359.13 289.08 361.93 309.00 361.00
C 316.82 360.27 321.53 351.65 323.00 345.00
C 323.61 339.10 322.22 333.74 322.00 328.00
C 321.22 307.46 311.28 286.54 298.00 271.00
C 293.41 266.41 288.54 261.54 284.00 257.00
C 267.37 242.79 245.18 232.00 223.00 232.00
C 219.95 232.00 217.41 232.02 215.00 231.00
C 214.50 231.00 213.50 231.00 213.00 231.00
C 193.33 231.00 173.67 231.00 154.00 231.00
C 152.67 231.00 151.33 231.01 150.00 231.00
C 148.18 231.25 145.50 231.95 143.00 232.00 Z"/>
</g>
<g fill="#F4EFE9" fill-opacity="0.20" stroke="None">
<path d="
M 223.00 232.00 
C 220.96 231.80 217.77 231.00 215.00 231.00
C 217.41 232.02 219.95 232.00 223.00 232.00 Z"/>
</g>
<g fill="#F2EAE1" fill-opacity="0.27" stroke="None">
<path d="
M 81.00 258.00 
C 80.54 258.49 80.40 259.57 80.00 260.00
C 82.42 257.93 84.62 255.08 87.00 253.00
C 84.99 254.49 82.94 256.34 81.00 258.00 Z"/>
</g>
<g fill="#F5F0E9" fill-opacity="0.18" stroke="None">
<path d="
M 298.00 271.00 
C 293.79 266.07 288.98 261.25 284.00 257.00
C 288.54 261.54 293.41 266.41 298.00 271.00 Z"/>
</g>
<g fill="#FBF8F6" fill-opacity="0.08" stroke="None">
<path d="
M 71.00 268.00 
C 73.70 265.30 77.04 262.53 80.00 260.00
C 80.40 259.57 80.54 258.49 81.00 258.00
C 77.45 261.03 74.07 264.40 71.00 268.00 Z"/>
</g>
<g fill="#F4F0EB" fill-opacity="0.18" stroke="None">
<path d="
M 57.00 287.00 
C 58.76 284.38 61.22 281.93 63.00 279.00
C 60.98 281.63 58.66 283.85 57.00 287.00 Z"/>
</g>
<g fill="#F5F1EA" fill-opacity="0.18" stroke="None">
<path d="
M 323.00 345.00 
C 324.33 338.98 322.70 333.79 322.00 328.00
C 322.22 333.74 323.61 339.10 323.00 345.00 Z"/>
</g>
<g fill="#EADECE" fill-opacity="0.44" stroke="None">
<path d="
M 44.00 348.00 
C 42.97 342.23 43.78 334.88 44.00 329.00
C 43.19 334.67 42.18 342.24 44.00 348.00 Z"/>
</g>
<g fill="#DAC4A9" fill-opacity="0.78" stroke="None">
<path d="
M 57.00 361.00 
C 57.99 361.05 59.01 361.00 60.00 361.00
C 141.67 361.00 223.33 361.00 305.00 361.00
C 306.31 361.00 307.69 361.12 309.00 361.00
C 289.08 361.93 266.84 359.13 246.00 360.00 C 225.16 360.87 203.90 360.10 183.00 360.00 C 162.10 359.90 139.77 361.10 119.00 360.00 C 98.23 358.90 76.77 362.45 57.00 361.00 Z"/>
</g>
<g fill="#FFFFFF" fill-opacity="0.04" stroke="None">
<path d="
M 305.00 361.00 
C 223.33 361.00 141.67 361.00 60.00 361.00
C 85.39 366.57 115.34 360.51 142.00 362.00 C 168.66 363.49 197.27 362.21 224.00 362.00 C 250.73 361.79 279.20 364.52 305.00 361.00 Z"/>
</g>
</svg>