<svg xmlns="http://www.w3.org/2000/svg" xmlns:v="https://svgstorm.com"
viewBox = "0 0 278 364"
width="278"
height="364">
<g fill="None" fill-opacity="0.0" stroke="#FEFEFE" stroke-opacity="1.00" stroke-width="0.3"><path d="
M 0.00 364.00 
L 278.00 364.00
L 278.00 0.00
L 0.00 0.00
L 0.00 364.00
M 231.00 102.00 
C 238.99 104.05 240.52 108.63 248.70 111.30 C 256.87 113.97 255.21 125.25 255.00 133.00 C 254.79 140.75 257.33 152.27 249.30 155.30 C 241.27 158.34 238.62 162.49 231.00 165.00
C 230.20 175.41 229.09 188.42 240.69 191.31 C 252.30 194.19 256.57 203.17 255.00 214.00 C 253.43 224.83 259.75 239.63 245.00 241.00
C 243.23 250.37 235.84 261.05 226.92 264.92 C 217.99 268.78 200.03 267.16 199.03 280.03 C 198.02 292.89 200.80 309.43 195.75 319.75 C 190.70 330.07 187.14 338.10 177.75 344.75 C 168.36 351.41 154.03 352.66 146.25 343.75 C 138.47 334.85 136.29 321.72 137.00 310.00 C 137.71 298.28 132.36 286.51 120.97 283.03 C 109.59 279.54 97.12 279.66 87.11 273.89 C 77.10 268.12 72.83 258.35 70.07 247.93 C 67.31 237.51 64.44 226.80 56.25 218.75 C 48.06 210.71 44.34 204.36 32.75 199.25 C 21.17 194.13 23.75 177.45 24.00 165.00 C 24.25 152.55 38.74 150.19 47.00 145.00
C 47.56 132.95 49.53 120.09 35.92 117.08 C 22.31 114.07 24.02 100.84 24.00 89.00 C 23.98 77.16 24.86 67.53 39.22 64.22 C 53.59 60.92 41.42 41.24 47.33 32.33 C 53.24 23.42 62.80 24.52 72.03 17.03 C 81.25 9.54 86.64 22.42 98.08 24.92 C 109.53 27.42 108.89 43.67 109.00 54.00 C 109.11 64.33 122.32 70.10 132.03 67.03 C 141.73 63.95 148.35 52.93 145.00 40.00 C 141.65 27.07 156.73 26.49 164.69 19.69 C 172.66 12.90 182.48 15.21 191.23 21.77 C 199.98 28.33 211.04 31.85 207.00 46.00 C 202.96 60.15 213.63 63.73 224.08 68.92 C 234.54 74.11 230.50 90.86 231.00 102.00 Z"/>
</g>
<g fill="None" fill-opacity="0.0" stroke="#F0E5D1" stroke-opacity="1.00" stroke-width="0.3"><path d="
M 231.00 102.00 
C 230.50 90.86 234.54 74.11 224.08 68.92 C 213.63 63.73 202.96 60.15 207.00 46.00 C 211.04 31.85 199.98 28.33 191.23 21.77 C 182.48 15.21 172.66 12.90 164.69 19.69 C 156.73 26.49 141.65 27.07 145.00 40.00 C 148.35 52.93 141.73 63.95 132.03 67.03 C 122.32 70.10 109.11 64.33 109.00 54.00 C 108.89 43.67 109.53 27.42 98.08 24.92 C 86.64 22.42 81.25 9.54 72.03 17.03 C 62.80 24.52 53.24 23.42 47.33 32.33 C 41.42 41.24 53.59 60.92 39.22 64.22 C 24.86 67.53 23.98 77.16 24.00 89.00 C 24.02 100.84 22.31 114.07 35.92 117.08 C 49.53 120.09 47.56 132.95 47.00 145.00
C 38.74 150.19 24.25 152.55 24.00 165.00 C 23.75 177.45 21.17 194.13 32.75 199.25 C 44.34 204.36 48.06 210.71 56.25 218.75 C 64.44 226.80 67.31 237.51 70.07 247.93 C 72.83 258.35 77.10 268.12 87.11 273.89 C 97.12 279.66 109.59 279.54 120.97 283.03 C 132.36 286.51 137.71 298.28 137.00 310.00 C 136.29 321.72 138.47 334.85 146.25 343.75 C 154.03 352.66 168.36 351.41 177.75 344.75 C 187.14 338.10 190.70 330.07 195.75 319.75 C 200.80 309.43 198.02 292.89 199.03 280.03 C 200.03 267.16 217.99 268.78 226.92 264.92 C 235.84 261.05 243.23 250.37 245.00 241.00
C 259.75 239.63 253.43 224.83 255.00 214.00 C 256.57 203.17 252.30 194.19 240.69 191.31 C 229.09 188.42 230.20 175.41 231.00 165.00
C 238.62 162.49 241.27 158.34 249.30 155.30 C 257.33 152.27 254.79 140.75 255.00 133.00 C 255.21 125.25 256.87 113.97 248.70 111.30 C 240.52 108.63 238.99 104.05 231.00 102.00
M 96.00 26.00 
C 96.43 26.17 97.00 26.00 97.00 26.00
C 106.76 28.14 110.24 36.67 108.00 47.00 C 105.76 57.33 110.13 63.18 119.25 67.75 C 128.37 72.32 132.24 68.48 141.08 64.08 C 149.92 59.68 146.87 47.07 147.00 38.00 C 147.13 28.93 156.89 26.60 163.25 22.25 C 169.60 17.89 179.00 13.47 185.25 19.75 C 191.49 26.04 199.20 25.56 204.75 32.25 C 210.30 38.93 201.32 55.35 207.75 61.25 C 214.19 67.14 220.94 67.44 227.70 73.30 C 234.45 79.17 225.98 95.75 230.33 102.67 C 234.68 109.59 245.53 107.62 251.08 113.92 C 256.63 120.23 253.24 134.29 254.00 143.00 C 254.76 151.71 246.48 156.65 238.26 159.26 C 230.04 161.86 227.24 174.14 230.00 183.00 C 232.76 191.86 237.58 193.31 247.25 197.75 C 256.91 202.20 251.79 211.97 254.00 223.00 C 256.21 234.03 247.77 237.27 242.70 243.70 C 237.62 250.12 237.29 257.85 228.92 261.92 C 220.55 265.99 213.38 266.01 204.75 269.75 C 196.13 273.50 197.46 286.06 198.00 295.00 C 198.54 303.94 197.59 315.33 193.67 322.67 C 189.75 330.01 185.99 335.22 179.75 340.75 C 173.51 346.28 163.72 349.82 155.00 348.00 C 146.28 346.18 144.45 337.20 141.02 329.98 C 137.60 322.75 138.15 309.26 138.00 301.00 C 137.85 292.74 132.13 285.64 124.92 282.08 C 117.71 278.52 106.68 277.95 98.93 276.07 C 91.17 274.19 82.94 272.20 78.25 264.75 C 73.56 257.31 72.16 248.92 70.00 241.00 C 67.84 233.08 63.86 225.80 59.75 219.25 C 55.64 212.70 47.83 208.95 42.92 204.08 C 38.00 199.22 25.39 197.37 26.00 189.00 C 26.62 180.63 23.44 165.57 27.26 158.26 C 31.08 150.94 42.67 150.83 48.00 146.00
C 51.27 132.77 50.27 118.48 35.75 114.25 C 21.24 110.01 25.68 89.19 26.00 77.00 C 26.32 64.81 53.40 68.89 49.00 53.00 C 44.60 37.11 53.09 28.74 65.25 22.25 C 77.40 15.75 85.73 14.98 96.00 26.00 Z"/>
</g>
<g fill="None" fill-opacity="0.0" stroke="#CFB491" stroke-opacity="1.00" stroke-width="0.3"><path d="
M 97.00 26.00 
C 101.92 31.14 109.51 34.19 107.00 43.00 C 104.49 51.81 106.65 61.74 113.08 64.92 C 119.52 68.10 124.31 75.05 130.74 71.74 C 137.18 68.43 142.00 64.19 149.00 62.00
C 149.88 48.42 143.89 29.52 161.00 25.00
C 162.69 24.11 164.32 23.71 166.00 23.00
C 172.80 19.10 179.99 14.72 186.25 21.75 C 192.50 28.79 202.02 27.24 203.99 36.01 C 205.96 44.77 199.93 59.03 208.70 63.30 C 217.47 67.58 220.23 72.41 229.00 75.00
C 230.68 85.20 224.34 102.27 234.68 107.32 C 245.02 112.37 254.14 115.65 253.00 128.00 C 251.86 140.35 256.14 152.19 241.78 155.78 C 227.41 159.36 229.48 167.88 229.00 181.00 C 228.52 194.12 240.81 193.30 249.22 199.78 C 257.64 206.25 250.75 225.47 253.00 235.00
C 238.15 234.72 239.38 259.64 225.78 261.78 C 212.17 263.92 192.36 269.93 196.00 287.00 C 199.64 304.07 194.81 319.08 186.70 330.70 C 178.58 342.31 162.63 353.66 150.92 344.08 C 139.21 334.50 140.45 315.97 139.03 300.97 C 137.60 285.97 121.93 276.53 108.00 277.00 C 94.07 277.47 79.34 267.77 75.07 254.93 C 70.81 242.09 69.10 226.48 58.75 216.25 C 48.40 206.02 39.89 197.32 27.00 193.00
C 27.00 181.67 27.00 170.33 27.00 159.00
C 35.21 153.28 49.41 153.10 51.00 141.00 C 52.59 128.90 50.89 116.03 36.92 113.08 C 22.95 110.13 27.26 92.26 27.00 81.00 C 26.74 69.74 43.24 67.31 51.00 62.00
C 49.46 46.58 48.94 32.46 62.75 25.75 C 76.55 19.03 82.45 16.18 96.00 26.00
C 85.73 14.98 77.40 15.75 65.25 22.25 C 53.09 28.74 44.60 37.11 49.00 53.00 C 53.40 68.89 26.32 64.81 26.00 77.00 C 25.68 89.19 21.24 110.01 35.75 114.25 C 50.27 118.48 51.27 132.77 48.00 146.00
C 42.67 150.83 31.08 150.94 27.26 158.26 C 23.44 165.57 26.62 180.63 26.00 189.00 C 25.39 197.37 38.00 199.22 42.92 204.08 C 47.83 208.95 55.64 212.70 59.75 219.25 C 63.86 225.80 67.84 233.08 70.00 241.00 C 72.16 248.92 73.56 257.31 78.25 264.75 C 82.94 272.20 91.17 274.19 98.93 276.07 C 106.68 277.95 117.71 278.52 124.92 282.08 C 132.13 285.64 137.85 292.74 138.00 301.00 C 138.15 309.26 137.60 322.75 141.02 329.98 C 144.45 337.20 146.28 346.18 155.00 348.00 C 163.72 349.82 173.51 346.28 179.75 340.75 C 185.99 335.22 189.75 330.01 193.67 322.67 C 197.59 315.33 198.54 303.94 198.00 295.00 C 197.46 286.06 196.13 273.50 204.75 269.75 C 213.38 266.01 220.55 265.99 228.92 261.92 C 237.29 257.85 237.62 250.12 242.70 243.70 C 247.77 237.27 256.21 234.03 254.00 223.00 C 251.79 211.97 256.91 202.20 247.25 197.75 C 237.58 193.31 232.76 191.86 230.00 183.00 C 227.24 174.14 230.04 161.86 238.26 159.26 C 246.48 156.65 254.76 151.71 254.00 143.00 C 253.24 134.29 256.63 120.23 251.08 113.92 C 245.53 107.62 234.68 109.59 230.33 102.67 C 225.98 95.75 234.45 79.17 227.70 73.30 C 220.94 67.44 214.19 67.14 207.75 61.25 C 201.32 55.35 210.30 38.93 204.75 32.25 C 199.20 25.56 191.49 26.04 185.25 19.75 C 179.00 13.47 169.60 17.89 163.25 22.25 C 156.89 26.60 147.13 28.93 147.00 38.00 C 146.87 47.07 149.92 59.68 141.08 64.08 C 132.24 68.48 128.37 72.32 119.25 67.75 C 110.13 63.18 105.76 57.33 108.00 47.00 C 110.24 36.67 106.76 28.14 97.00 26.00 Z"/>
</g>
<g fill="None" fill-opacity="0.0" stroke="#C49C6A" stroke-opacity="1.00" stroke-width="0.3"><path d="
M 166.00 23.00 
C 170.56 21.06 181.31 14.13 180.00 25.00
C 169.91 23.80 164.44 35.95 154.00 34.00
C 153.18 29.12 159.68 28.94 161.00 25.00
C 143.89 29.52 149.88 48.42 149.00 62.00
C 142.00 64.19 137.18 68.43 130.74 71.74 C 124.31 75.05 119.52 68.10 113.08 64.92 C 106.65 61.74 104.49 51.81 107.00 43.00 C 109.51 34.19 101.92 31.14 97.00 26.00
C 97.00 26.00 96.43 26.17 96.00 26.00
C 82.45 16.18 76.55 19.03 62.75 25.75 C 48.94 32.46 49.46 46.58 51.00 62.00
C 43.24 67.31 26.74 69.74 27.00 81.00 C 27.26 92.26 22.95 110.13 36.92 113.08 C 50.89 116.03 52.59 128.90 51.00 141.00 C 49.41 153.10 35.21 153.28 27.00 159.00
C 27.00 170.33 27.00 181.67 27.00 193.00
C 39.89 197.32 48.40 206.02 58.75 216.25 C 69.10 226.48 70.81 242.09 75.07 254.93 C 79.34 267.77 94.07 277.47 108.00 277.00 C 121.93 276.53 137.60 285.97 139.03 300.97 C 140.45 315.97 139.21 334.50 150.92 344.08 C 162.63 353.66 178.58 342.31 186.70 330.70 C 194.81 319.08 199.64 304.07 196.00 287.00 C 192.36 269.93 212.17 263.92 225.78 261.78 C 239.38 259.64 238.15 234.72 253.00 235.00
C 250.75 225.47 257.64 206.25 249.22 199.78 C 240.81 193.30 228.52 194.12 229.00 181.00 C 229.48 167.88 227.41 159.36 241.78 155.78 C 256.14 152.19 251.86 140.35 253.00 128.00 C 254.14 115.65 245.02 112.37 234.68 107.32 C 224.34 102.27 230.68 85.20 229.00 75.00
C 220.23 72.41 217.47 67.58 208.70 63.30 C 199.93 59.03 205.96 44.77 203.99 36.01 C 202.02 27.24 192.50 28.79 186.25 21.75 C 179.99 14.72 172.80 19.10 166.00 23.00
M 80.00 27.00 
C 85.44 27.53 88.10 33.76 94.25 35.75 C 100.39 37.75 97.29 48.46 98.00 55.00 C 98.71 61.54 91.22 63.29 86.25 67.25 C 81.28 71.21 74.88 69.77 69.75 66.25 C 64.63 62.72 57.85 59.94 59.00 53.00 C 60.15 46.06 57.55 37.40 63.75 34.75 C 69.95 32.10 73.87 26.41 80.00 27.00
M 196.00 61.00 
C 185.17 66.30 179.61 72.42 167.26 66.74 C 154.90 61.07 154.31 50.76 156.00 37.00
C 167.63 32.90 172.34 25.66 184.74 31.26 C 197.15 36.86 197.71 47.18 196.00 61.00
M 173.00 78.00 
C 173.00 86.67 173.00 95.33 173.00 104.00
C 162.93 105.54 158.33 118.39 147.26 113.74 C 136.18 109.10 130.47 104.06 131.00 91.00 C 131.53 77.94 136.57 75.28 147.08 69.08 C 157.59 62.89 162.68 77.57 173.00 78.00
M 74.00 103.00 
C 68.01 105.79 61.90 110.60 55.78 112.78 C 49.65 114.95 43.12 108.75 37.77 105.23 C 32.42 101.71 31.81 86.34 34.78 80.78 C 37.74 75.22 46.00 72.58 51.75 69.75 C 57.49 66.91 64.03 75.19 70.08 77.92 C 76.13 80.65 73.68 96.31 74.00 103.00
M 106.00 69.00 
C 110.34 69.90 116.77 75.15 120.75 78.25 C 124.72 81.35 123.78 94.32 123.00 100.00 C 122.22 105.68 114.49 106.46 110.25 111.25 C 106.00 116.04 98.07 112.04 92.78 109.22 C 87.48 106.40 82.11 101.89 83.00 95.00 C 83.89 88.11 81.25 78.73 88.74 76.74 C 96.24 74.76 97.91 67.33 106.00 69.00
M 202.00 69.00 
C 207.28 69.87 211.67 75.42 217.03 77.97 C 222.38 80.52 219.89 92.73 220.00 99.00 C 220.11 105.27 211.71 106.06 207.30 110.30 C 202.89 114.54 196.96 112.90 191.78 109.22 C 186.60 105.55 180.16 103.41 181.00 96.00 C 181.84 88.58 179.00 79.49 186.22 77.22 C 193.45 74.96 194.46 67.76 202.00 69.00
M 226.00 156.00 
C 225.51 156.08 224.49 156.08 224.00 156.00
C 215.90 154.61 206.37 149.37 204.01 139.99 C 201.65 130.61 204.92 118.58 215.25 114.25 C 225.57 109.92 228.35 109.59 238.74 116.26 C 249.14 122.92 245.68 134.69 246.00 146.00
C 238.59 147.28 233.19 154.01 226.00 156.00
M 117.00 150.00 
C 116.52 149.90 116.00 150.00 116.00 150.00
C 105.58 145.91 101.83 129.01 110.08 120.08 C 118.33 111.15 128.46 111.06 138.69 116.31 C 148.93 121.55 152.65 138.07 144.77 146.77 C 136.89 155.46 125.21 158.57 117.00 150.00
M 81.00 112.00 
C 85.72 112.88 90.14 118.47 95.22 120.78 C 100.31 123.09 97.95 134.56 98.00 141.00 C 98.05 147.44 89.64 147.92 84.92 151.92 C 80.20 155.92 75.13 153.60 69.75 150.25 C 64.38 146.90 57.66 144.72 59.00 137.00 C 60.34 129.28 56.97 121.84 64.68 119.68 C 72.39 117.52 72.65 110.44 81.00 112.00
M 156.00 122.00 
C 163.25 121.93 170.74 107.60 179.00 112.00 C 187.26 116.40 195.50 117.99 196.00 129.00 C 196.50 140.01 195.76 145.77 185.26 151.26 C 174.76 156.75 173.59 154.12 163.26 148.74 C 152.93 143.37 156.20 133.29 156.00 122.00
M 85.00 188.00 
C 84.65 187.77 84.00 188.00 84.00 188.00
C 81.48 187.63 79.42 164.97 83.75 162.75 C 88.09 160.54 97.88 152.66 103.07 153.07 C 108.26 153.49 118.22 160.16 122.22 162.78 C 126.23 165.39 125.54 185.33 122.74 188.74 C 119.94 192.15 108.49 198.58 103.97 198.97 C 99.46 199.37 87.47 191.78 85.00 188.00
M 57.00 154.00 
C 62.31 155.78 62.04 161.20 69.03 161.97 C 76.01 162.75 73.04 172.68 74.00 178.00 C 74.96 183.32 72.57 191.22 66.26 191.26 C 59.94 191.30 58.88 200.78 52.33 197.67 C 45.78 194.56 47.27 193.74 39.77 190.23 C 32.27 186.72 37.70 182.62 35.00 174.00 C 32.30 165.38 48.30 151.08 57.00 154.00
M 154.00 154.00 
C 159.29 154.99 163.18 160.82 168.74 163.26 C 174.31 165.69 172.03 177.47 172.00 184.00 C 171.97 190.53 163.22 189.80 158.77 194.77 C 154.32 199.74 148.03 196.30 142.78 193.22 C 137.52 190.14 130.75 187.28 132.00 180.00 C 133.25 172.72 129.75 163.50 137.68 161.68 C 145.61 159.86 145.82 152.47 154.00 154.00
M 204.00 154.00 
C 207.83 155.08 214.56 159.95 218.22 162.78 C 221.89 165.60 220.72 179.43 220.00 185.00 C 219.28 190.57 210.53 190.66 206.25 195.25 C 201.97 199.84 196.95 194.90 191.26 192.74 C 185.56 190.59 179.60 186.20 181.00 179.00 C 182.40 171.80 179.20 162.70 187.22 161.22 C 195.24 159.75 195.84 151.70 204.00 154.00
M 178.00 193.00 
C 188.11 199.46 198.38 204.94 198.00 218.00 C 197.62 231.06 188.87 241.29 175.00 241.00 C 161.13 240.71 154.47 229.09 155.00 216.00 C 155.53 202.91 166.04 197.61 178.00 193.00
M 228.00 196.00 
C 233.05 197.52 233.24 202.98 239.70 204.30 C 246.15 205.63 243.14 215.83 244.00 221.00 C 244.86 226.17 242.46 232.59 236.97 233.97 C 231.49 235.36 228.60 242.31 222.00 240.00 C 215.40 237.69 217.29 235.30 210.30 231.70 C 203.31 228.10 208.46 223.39 206.00 215.00 C 203.54 206.61 219.83 193.54 228.00 196.00
M 180.00 294.00 
C 184.73 303.82 180.72 312.03 176.08 323.08 C 171.44 334.13 157.41 326.54 165.25 317.25 C 173.09 307.95 177.30 304.92 180.00 294.00 Z"/>
</g>
<g fill="None" fill-opacity="0.0" stroke="#B88448" stroke-opacity="1.00" stroke-width="0.3"><path d="
M 166.00 23.00 
C 164.32 23.71 162.69 24.11 161.00 25.00
C 159.68 28.94 153.18 29.12 154.00 34.00
C 164.44 35.95 169.91 23.80 180.00 25.00
C 181.31 14.13 170.56 21.06 166.00 23.00 Z"/>
</g>
<g fill="None" fill-opacity="0.0" stroke="#FCFAF5" stroke-opacity="1.00" stroke-width="0.3"><path d="
M 80.00 27.00 
C 73.87 26.41 69.95 32.10 63.75 34.75 C 57.55 37.40 60.15 46.06 59.00 53.00 C 57.85 59.94 64.63 62.72 69.75 66.25 C 74.88 69.77 81.28 71.21 86.25 67.25 C 91.22 63.29 98.71 61.54 98.00 55.00 C 97.29 48.46 100.39 37.75 94.25 35.75 C 88.10 33.76 85.44 27.53 80.00 27.00 Z"/>
</g>
<g fill="None" fill-opacity="0.0" stroke="#F3E5D0" stroke-opacity="1.00" stroke-width="0.3"><path d="
M 196.00 61.00 
C 197.71 47.18 197.15 36.86 184.74 31.26 C 172.34 25.66 167.63 32.90 156.00 37.00
C 154.31 50.76 154.90 61.07 167.26 66.74 C 179.61 72.42 185.17 66.30 196.00 61.00
M 193.00 61.00 
C 185.54 60.74 180.85 71.85 173.31 67.69 C 165.76 63.53 159.09 62.82 159.00 53.00 C 158.91 43.18 158.68 36.49 168.08 33.08 C 177.49 29.68 180.21 30.33 188.69 35.31 C 197.18 40.28 191.23 52.60 193.00 61.00 Z"/>
</g>
<g fill="None" fill-opacity="0.0" stroke="#FEFEFD" stroke-opacity="1.00" stroke-width="0.3"><path d="
M 193.00 61.00 
C 191.23 52.60 197.18 40.28 188.69 35.31 C 180.21 30.33 177.49 29.68 168.08 33.08 C 158.68 36.49 158.91 43.18 159.00 53.00 C 159.09 62.82 165.76 63.53 173.31 67.69 C 180.85 71.85 185.54 60.74 193.00 61.00 Z"/>
</g>
<g fill="None" fill-opacity="0.0" stroke="#D1B795" stroke-opacity="1.00" stroke-width="0.3"><path d="
M 173.00 78.00 
C 162.68 77.57 157.59 62.89 147.08 69.08 C 136.57 75.28 131.53 77.94 131.00 91.00 C 130.47 104.06 136.18 109.10 147.26 113.74 C 158.33 118.39 162.93 105.54 173.00 104.00
C 173.00 95.33 173.00 86.67 173.00 78.00
M 132.00 80.00 
C 139.25 79.88 145.88 66.33 153.67 70.33 C 161.46 74.34 170.26 75.44 171.00 86.00 C 171.73 96.56 171.18 104.05 160.75 108.75 C 150.33 113.45 148.70 111.76 138.92 106.08 C 129.14 100.40 132.14 90.85 132.00 80.00 Z"/>
</g>
<g fill="None" fill-opacity="0.0" stroke="#EDDEC8" stroke-opacity="1.00" stroke-width="0.3"><path d="
M 74.00 103.00 
C 73.68 96.31 76.13 80.65 70.08 77.92 C 64.03 75.19 57.49 66.91 51.75 69.75 C 46.00 72.58 37.74 75.22 34.78 80.78 C 31.81 86.34 32.42 101.71 37.77 105.23 C 43.12 108.75 49.65 114.95 55.78 112.78 C 61.90 110.60 68.01 105.79 74.00 103.00
M 56.00 71.00 
C 59.29 71.40 68.00 78.69 70.75 81.25 C 73.50 83.81 73.28 100.54 69.75 102.75 C 66.21 104.95 57.29 112.45 53.00 111.00 C 48.70 109.54 40.22 104.98 37.75 101.25 C 35.28 97.52 35.57 81.83 39.25 79.25 C 42.93 76.67 51.42 70.45 56.00 71.00 Z"/>
</g>
<g fill="None" fill-opacity="0.0" stroke="#E9D9C2" stroke-opacity="1.00" stroke-width="0.3"><path d="
M 106.00 69.00 
C 97.91 67.33 96.24 74.76 88.74 76.74 C 81.25 78.73 83.89 88.11 83.00 95.00 C 82.11 101.89 87.48 106.40 92.78 109.22 C 98.07 112.04 106.00 116.04 110.25 111.25 C 114.49 106.46 122.22 105.68 123.00 100.00 C 123.78 94.32 124.72 81.35 120.75 78.25 C 116.77 75.15 110.34 69.90 106.00 69.00
M 105.00 72.00 
C 116.05 74.02 122.46 83.90 121.00 94.00 C 119.54 104.10 111.96 111.19 101.92 111.06 C 91.87 110.94 84.34 98.83 85.00 90.00 C 85.66 81.17 94.67 70.11 105.00 72.00 Z"/>
</g>
<g fill="None" fill-opacity="0.0" stroke="#F0E4CE" stroke-opacity="1.00" stroke-width="0.3"><path d="
M 202.00 69.00 
C 194.46 67.76 193.45 74.96 186.22 77.22 C 179.00 79.49 181.84 88.58 181.00 96.00 C 180.16 103.41 186.60 105.55 191.78 109.22 C 196.96 112.90 202.89 114.54 207.30 110.30 C 211.71 106.06 220.11 105.27 220.00 99.00 C 219.89 92.73 222.38 80.52 217.03 77.97 C 211.67 75.42 207.28 69.87 202.00 69.00
M 201.00 71.00 
C 205.72 71.39 212.01 78.28 216.25 80.75 C 220.49 83.23 220.47 97.84 217.25 101.25 C 214.02 104.65 205.80 110.53 200.97 110.97 C 196.14 111.42 187.99 104.87 184.75 102.25 C 181.51 99.63 181.28 82.78 184.26 80.26 C 187.24 77.74 196.94 70.67 201.00 71.00 Z"/>
</g>
<g fill="None" fill-opacity="0.0" stroke="#F4EAD7" stroke-opacity="1.00" stroke-width="0.3"><path d="
M 132.00 80.00 
C 132.14 90.85 129.14 100.40 138.92 106.08 C 148.70 111.76 150.33 113.45 160.75 108.75 C 171.18 104.05 171.73 96.56 171.00 86.00 C 170.26 75.44 161.46 74.34 153.67 70.33 C 145.88 66.33 139.25 79.88 132.00 80.00
M 169.00 103.00 
C 161.79 102.99 155.73 114.81 148.26 109.74 C 140.78 104.68 134.20 105.49 133.00 95.00 C 131.80 84.51 135.18 79.92 144.08 75.08 C 152.98 70.25 154.52 72.51 163.25 77.75 C 171.98 83.00 168.53 93.22 169.00 103.00 Z"/>
</g>
<g fill="None" fill-opacity="0.0" stroke="#FEFEFC" stroke-opacity="1.00" stroke-width="0.3"><path d="
M 56.00 71.00 
C 51.42 70.45 42.93 76.67 39.25 79.25 C 35.57 81.83 35.28 97.52 37.75 101.25 C 40.22 104.98 48.70 109.54 53.00 111.00 C 57.29 112.45 66.21 104.95 69.75 102.75 C 73.28 100.54 73.50 83.81 70.75 81.25 C 68.00 78.69 59.29 71.40 56.00 71.00 Z"/>
</g>
<g fill="None" fill-opacity="0.0" stroke="#FEFEFC" stroke-opacity="1.00" stroke-width="0.3"><path d="
M 169.00 103.00 
C 168.53 93.22 171.98 83.00 163.25 77.75 C 154.52 72.51 152.98 70.25 144.08 75.08 C 135.18 79.92 131.80 84.51 133.00 95.00 C 134.20 105.49 140.78 104.68 148.26 109.74 C 155.73 114.81 161.79 102.99 169.00 103.00 Z"/>
</g>
<g fill="None" fill-opacity="0.0" stroke="#FEFEFC" stroke-opacity="1.00" stroke-width="0.3"><path d="
M 201.00 71.00 
C 196.94 70.67 187.24 77.74 184.26 80.26 C 181.28 82.78 181.51 99.63 184.75 102.25 C 187.99 104.87 196.14 111.42 200.97 110.97 C 205.80 110.53 214.02 104.65 217.25 101.25 C 220.47 97.84 220.49 83.23 216.25 80.75 C 212.01 78.28 205.72 71.39 201.00 71.00 Z"/>
</g>
<g fill="None" fill-opacity="0.0" stroke="#FEFEFC" stroke-opacity="1.00" stroke-width="0.3"><path d="
M 105.00 72.00 
C 94.67 70.11 85.66 81.17 85.00 90.00 C 84.34 98.83 91.87 110.94 101.92 111.06 C 111.96 111.19 119.54 104.10 121.00 94.00 C 122.46 83.90 116.05 74.02 105.00 72.00 Z"/>
</g>
<g fill="None" fill-opacity="0.0" stroke="#D3BA9A" stroke-opacity="1.00" stroke-width="0.3"><path d="
M 224.00 156.00 
C 219.86 153.47 211.12 148.50 207.75 145.25 C 204.38 142.00 204.05 124.17 207.26 121.26 C 210.46 118.34 220.51 112.15 225.01 112.01 C 229.51 111.87 239.13 118.24 242.25 121.75 C 245.36 125.26 246.08 141.55 242.25 145.25 C 238.41 148.94 230.42 152.92 226.00 156.00
C 233.19 154.01 238.59 147.28 246.00 146.00
C 245.68 134.69 249.14 122.92 238.74 116.26 C 228.35 109.59 225.57 109.92 215.25 114.25 C 204.92 118.58 201.65 130.61 204.01 139.99 C 206.37 149.37 215.90 154.61 224.00 156.00 Z"/>
</g>
<g fill="None" fill-opacity="0.0" stroke="#D8C0A1" stroke-opacity="1.00" stroke-width="0.3"><path d="
M 116.00 150.00 
C 110.90 142.70 106.80 141.85 108.00 131.00 C 109.20 120.15 111.64 120.87 120.03 116.03 C 128.42 111.18 128.94 113.40 137.70 117.30 C 146.45 121.21 146.95 124.85 147.00 135.00 C 147.05 145.15 143.97 145.45 136.25 151.25 C 128.54 157.06 124.64 151.68 117.00 150.00
C 125.21 158.57 136.89 155.46 144.77 146.77 C 152.65 138.07 148.93 121.55 138.69 116.31 C 128.46 111.06 118.33 111.15 110.08 120.08 C 101.83 129.01 105.58 145.91 116.00 150.00 Z"/>
</g>
<g fill="None" fill-opacity="0.0" stroke="#FDFBF7" stroke-opacity="1.00" stroke-width="0.3"><path d="
M 81.00 112.00 
C 72.65 110.44 72.39 117.52 64.68 119.68 C 56.97 121.84 60.34 129.28 59.00 137.00 C 57.66 144.72 64.38 146.90 69.75 150.25 C 75.13 153.60 80.20 155.92 84.92 151.92 C 89.64 147.92 98.05 147.44 98.00 141.00 C 97.95 134.56 100.31 123.09 95.22 120.78 C 90.14 118.47 85.72 112.88 81.00 112.00 Z"/>
</g>
<g fill="None" fill-opacity="0.0" stroke="#F4EBD7" stroke-opacity="1.00" stroke-width="0.3"><path d="
M 116.00 150.00 
C 116.00 150.00 116.52 149.90 117.00 150.00
C 124.64 151.68 128.54 157.06 136.25 151.25 C 143.97 145.45 147.05 145.15 147.00 135.00 C 146.95 124.85 146.45 121.21 137.70 117.30 C 128.94 113.40 128.42 111.18 120.03 116.03 C 111.64 120.87 109.20 120.15 108.00 131.00 C 106.80 141.85 110.90 142.70 116.00 150.00
M 110.00 123.00 
C 116.18 121.77 122.18 111.50 129.22 114.78 C 136.27 118.06 144.90 119.35 145.00 129.00 C 145.10 138.65 145.57 144.42 136.25 149.25 C 126.94 154.09 124.39 152.06 115.90 147.10 C 107.42 142.13 110.16 132.64 110.00 123.00 Z"/>
</g>
<g fill="None" fill-opacity="0.0" stroke="#F2E6D1" stroke-opacity="1.00" stroke-width="0.3"><path d="
M 156.00 122.00 
C 156.20 133.29 152.93 143.37 163.26 148.74 C 173.59 154.12 174.76 156.75 185.26 151.26 C 195.76 145.77 196.50 140.01 196.00 129.00 C 195.50 117.99 187.26 116.40 179.00 112.00 C 170.74 107.60 163.25 121.93 156.00 122.00
M 178.00 114.00 
C 183.66 114.95 192.19 119.90 193.97 127.03 C 195.76 134.15 194.16 144.35 185.92 148.92 C 177.67 153.49 174.24 150.93 166.26 147.74 C 158.27 144.56 156.58 131.50 159.00 125.00 C 161.42 118.50 173.04 113.17 178.00 114.00 Z"/>
</g>
<g fill="None" fill-opacity="0.0" stroke="#F3EAD8" stroke-opacity="1.00" stroke-width="0.3"><path d="
M 224.00 156.00 
C 224.49 156.08 225.51 156.08 226.00 156.00
C 230.42 152.92 238.41 148.94 242.25 145.25 C 246.08 141.55 245.36 125.26 242.25 121.75 C 239.13 118.24 229.51 111.87 225.01 112.01 C 220.51 112.15 210.46 118.34 207.26 121.26 C 204.05 124.17 204.38 142.00 207.75 145.25 C 211.12 148.50 219.86 153.47 224.00 156.00
M 227.00 113.00 
C 231.37 114.03 234.88 119.05 240.03 120.97 C 245.17 122.90 242.71 134.01 243.00 140.00 C 243.29 145.99 235.30 146.46 231.26 150.26 C 227.22 154.05 221.79 152.04 216.77 149.23 C 211.75 146.42 206.09 143.68 207.00 137.00 C 207.91 130.32 205.09 121.67 212.22 120.22 C 219.36 118.78 219.62 111.27 227.00 113.00 Z"/>
</g>
<g fill="None" fill-opacity="0.0" stroke="#FEFEFC" stroke-opacity="1.00" stroke-width="0.3"><path d="
M 227.00 113.00 
C 219.62 111.27 219.36 118.78 212.22 120.22 C 205.09 121.67 207.91 130.32 207.00 137.00 C 206.09 143.68 211.75 146.42 216.77 149.23 C 221.79 152.04 227.22 154.05 231.26 150.26 C 235.30 146.46 243.29 145.99 243.00 140.00 C 242.71 134.01 245.17 122.90 240.03 120.97 C 234.88 119.05 231.37 114.03 227.00 113.00 Z"/>
</g>
<g fill="None" fill-opacity="0.0" stroke="#FEFEFD" stroke-opacity="1.00" stroke-width="0.3"><path d="
M 110.00 123.00 
C 110.16 132.64 107.42 142.13 115.90 147.10 C 124.39 152.06 126.94 154.09 136.25 149.25 C 145.57 144.42 145.10 138.65 145.00 129.00 C 144.90 119.35 136.27 118.06 129.22 114.78 C 122.18 111.50 116.18 121.77 110.00 123.00 Z"/>
</g>
<g fill="None" fill-opacity="0.0" stroke="#FEFEFD" stroke-opacity="1.00" stroke-width="0.3"><path d="
M 178.00 114.00 
C 173.04 113.17 161.42 118.50 159.00 125.00 C 156.58 131.50 158.27 144.56 166.26 147.74 C 174.24 150.93 177.67 153.49 185.92 148.92 C 194.16 144.35 195.76 134.15 193.97 127.03 C 192.19 119.90 183.66 114.95 178.00 114.00 Z"/>
</g>
<g fill="None" fill-opacity="0.0" stroke="#D3BB9A" stroke-opacity="1.00" stroke-width="0.3"><path d="
M 84.00 188.00 
C 83.00 176.97 81.09 165.60 91.08 160.08 C 101.07 154.56 103.75 153.89 114.08 159.92 C 124.41 165.94 122.44 175.79 122.00 188.00
C 114.91 189.50 109.72 195.33 103.00 198.00
C 97.07 194.37 91.01 191.39 85.00 188.00
C 87.47 191.78 99.46 199.37 103.97 198.97 C 108.49 198.58 119.94 192.15 122.74 188.74 C 125.54 185.33 126.23 165.39 122.22 162.78 C 118.22 160.16 108.26 153.49 103.07 153.07 C 97.88 152.66 88.09 160.54 83.75 162.75 C 79.42 164.97 81.48 187.63 84.00 188.00 Z"/>
</g>
<g fill="None" fill-opacity="0.0" stroke="#F1E6D3" stroke-opacity="1.00" stroke-width="0.3"><path d="
M 57.00 154.00 
C 48.30 151.08 32.30 165.38 35.00 174.00 C 37.70 182.62 32.27 186.72 39.77 190.23 C 47.27 193.74 45.78 194.56 52.33 197.67 C 58.88 200.78 59.94 191.30 66.26 191.26 C 72.57 191.22 74.96 183.32 74.00 178.00 C 73.04 172.68 76.01 162.75 69.03 161.97 C 62.04 161.20 62.31 155.78 57.00 154.00
M 55.00 155.00 
C 62.15 162.68 70.24 159.82 71.00 172.00 C 71.75 184.18 69.53 188.79 58.97 192.97 C 48.41 197.16 47.23 189.39 37.00 187.00
C 38.84 181.25 33.78 167.87 38.75 163.75 C 43.73 159.64 49.78 158.49 55.00 155.00 Z"/>
</g>
<g fill="None" fill-opacity="0.0" stroke="#F3EBD8" stroke-opacity="1.00" stroke-width="0.3"><path d="
M 84.00 188.00 
C 84.00 188.00 84.65 187.77 85.00 188.00
C 91.01 191.39 97.07 194.37 103.00 198.00
C 109.72 195.33 114.91 189.50 122.00 188.00
C 122.44 175.79 124.41 165.94 114.08 159.92 C 103.75 153.89 101.07 154.56 91.08 160.08 C 81.09 165.60 83.00 176.97 84.00 188.00
M 121.00 165.00 
C 120.73 175.11 123.77 183.83 114.97 188.97 C 106.18 194.11 105.49 196.51 95.92 192.08 C 86.36 187.64 83.92 182.33 85.00 172.00 C 86.08 161.67 92.27 161.12 100.08 157.08 C 107.89 153.05 113.45 165.18 121.00 165.00 Z"/>
</g>
<g fill="None" fill-opacity="0.0" stroke="#F2E5D0" stroke-opacity="1.00" stroke-width="0.3"><path d="
M 154.00 154.00 
C 145.82 152.47 145.61 159.86 137.68 161.68 C 129.75 163.50 133.25 172.72 132.00 180.00 C 130.75 187.28 137.52 190.14 142.78 193.22 C 148.03 196.30 154.32 199.74 158.77 194.77 C 163.22 189.80 171.97 190.53 172.00 184.00 C 172.03 177.47 174.31 165.69 168.74 163.26 C 163.18 160.82 159.29 154.99 154.00 154.00
M 153.00 155.00 
C 161.46 160.65 169.14 165.36 169.00 176.00 C 168.86 186.64 162.61 195.84 151.00 195.00 C 139.39 194.16 134.81 184.49 135.00 174.00 C 135.19 163.51 143.26 158.72 153.00 155.00 Z"/>
</g>
<g fill="None" fill-opacity="0.0" stroke="#F2E7D3" stroke-opacity="1.00" stroke-width="0.3"><path d="
M 204.00 154.00 
C 195.84 151.70 195.24 159.75 187.22 161.22 C 179.20 162.70 182.40 171.80 181.00 179.00 C 179.60 186.20 185.56 190.59 191.26 192.74 C 196.95 194.90 201.97 199.84 206.25 195.25 C 210.53 190.66 219.28 190.57 220.00 185.00 C 220.72 179.43 221.89 165.60 218.22 162.78 C 214.56 159.95 207.83 155.08 204.00 154.00
M 202.00 155.00 
C 206.79 155.45 209.37 160.56 214.70 163.30 C 220.03 166.05 217.56 175.50 218.00 182.00 C 218.44 188.50 211.38 188.41 206.75 192.75 C 202.13 197.10 198.72 194.04 193.75 191.25 C 188.78 188.45 181.33 187.22 183.00 180.00 C 184.67 172.78 180.41 164.19 187.68 162.68 C 194.95 161.17 195.31 154.37 202.00 155.00 Z"/>
</g>
<g fill="None" fill-opacity="0.0" stroke="#FEFEFD" stroke-opacity="1.00" stroke-width="0.3"><path d="
M 55.00 155.00 
C 49.78 158.49 43.73 159.64 38.75 163.75 C 33.78 167.87 38.84 181.25 37.00 187.00
C 47.23 189.39 48.41 197.16 58.97 192.97 C 69.53 188.79 71.75 184.18 71.00 172.00 C 70.24 159.82 62.15 162.68 55.00 155.00 Z"/>
</g>
<g fill="None" fill-opacity="0.0" stroke="#FEFEFD" stroke-opacity="1.00" stroke-width="0.3"><path d="
M 153.00 155.00 
C 143.26 158.72 135.19 163.51 135.00 174.00 C 134.81 184.49 139.39 194.16 151.00 195.00 C 162.61 195.84 168.86 186.64 169.00 176.00 C 169.14 165.36 161.46 160.65 153.00 155.00 Z"/>
</g>
<g fill="None" fill-opacity="0.0" stroke="#FEFEFD" stroke-opacity="1.00" stroke-width="0.3"><path d="
M 202.00 155.00 
C 195.31 154.37 194.95 161.17 187.68 162.68 C 180.41 164.19 184.67 172.78 183.00 180.00 C 181.33 187.22 188.78 188.45 193.75 191.25 C 198.72 194.04 202.13 197.10 206.75 192.75 C 211.38 188.41 218.44 188.50 218.00 182.00 C 217.56 175.50 220.03 166.05 214.70 163.30 C 209.37 160.56 206.79 155.45 202.00 155.00 Z"/>
</g>
<g fill="None" fill-opacity="0.0" stroke="#FEFEFD" stroke-opacity="1.00" stroke-width="0.3"><path d="
M 121.00 165.00 
C 113.45 165.18 107.89 153.05 100.08 157.08 C 92.27 161.12 86.08 161.67 85.00 172.00 C 83.92 182.33 86.36 187.64 95.92 192.08 C 105.49 196.51 106.18 194.11 114.97 188.97 C 123.77 183.83 120.73 175.11 121.00 165.00 Z"/>
</g>
<g fill="None" fill-opacity="0.0" stroke="#CEB390" stroke-opacity="1.00" stroke-width="0.3"><path d="
M 178.00 193.00 
C 166.04 197.61 155.53 202.91 155.00 216.00 C 154.47 229.09 161.13 240.71 175.00 241.00 C 188.87 241.29 197.62 231.06 198.00 218.00 C 198.38 204.94 188.11 199.46 178.00 193.00
M 196.00 230.00 
C 188.25 229.26 181.74 243.62 173.78 239.22 C 165.82 234.82 158.03 233.76 157.00 223.00 C 155.97 212.24 157.46 205.58 167.74 200.74 C 178.03 195.91 178.84 197.68 189.22 202.78 C 199.61 207.87 195.27 219.61 196.00 230.00 Z"/>
</g>
<g fill="None" fill-opacity="0.0" stroke="#F4EAD7" stroke-opacity="1.00" stroke-width="0.3"><path d="
M 196.00 230.00 
C 195.27 219.61 199.61 207.87 189.22 202.78 C 178.84 197.68 178.03 195.91 167.74 200.74 C 157.46 205.58 155.97 212.24 157.00 223.00 C 158.03 233.76 165.82 234.82 173.78 239.22 C 181.74 243.62 188.25 229.26 196.00 230.00
M 159.00 207.00 
C 165.53 206.59 172.06 195.31 178.70 199.31 C 185.33 203.30 193.72 203.52 195.00 213.00 C 196.27 222.48 194.19 229.85 185.25 234.25 C 176.30 238.65 173.48 236.96 164.78 232.22 C 156.08 227.49 159.53 215.78 159.00 207.00 Z"/>
</g>
<g fill="None" fill-opacity="0.0" stroke="#FCFAF6" stroke-opacity="1.00" stroke-width="0.3"><path d="
M 228.00 196.00 
C 219.83 193.54 203.54 206.61 206.00 215.00 C 208.46 223.39 203.31 228.10 210.30 231.70 C 217.29 235.30 215.40 237.69 222.00 240.00 C 228.60 242.31 231.49 235.36 236.97 233.97 C 242.46 232.59 244.86 226.17 244.00 221.00 C 243.14 215.83 246.15 205.63 239.70 204.30 C 233.24 202.98 233.05 197.52 228.00 196.00 Z"/>
</g>
<g fill="None" fill-opacity="0.0" stroke="#FEFEFC" stroke-opacity="1.00" stroke-width="0.3"><path d="
M 159.00 207.00 
C 159.53 215.78 156.08 227.49 164.78 232.22 C 173.48 236.96 176.30 238.65 185.25 234.25 C 194.19 229.85 196.27 222.48 195.00 213.00 C 193.72 203.52 185.33 203.30 178.70 199.31 C 172.06 195.31 165.53 206.59 159.00 207.00 Z"/>
</g>
<g fill="None" fill-opacity="0.0" stroke="#E9DAC1" stroke-opacity="1.00" stroke-width="0.3"><path d="
M 180.00 294.00 
C 177.30 304.92 173.09 307.95 165.25 317.25 C 157.41 326.54 171.44 334.13 176.08 323.08 C 180.72 312.03 184.73 303.82 180.00 294.00
M 179.00 306.00 
C 180.26 311.11 172.54 331.11 166.26 325.74 C 159.97 320.38 176.05 309.53 179.00 306.00 Z"/>
</g>
<g fill="None" fill-opacity="0.0" stroke="#FEFDF7" stroke-opacity="1.00" stroke-width="0.3"><path d="
M 179.00 306.00 
C 176.05 309.53 159.97 320.38 166.26 325.74 C 172.54 331.11 180.26 311.11 179.00 306.00 Z"/>
</g>
<g fill="#FEFEFE" fill-opacity="1.00" stroke="None">
<path d="
M 0.00 364.00 
L 278.00 364.00
L 278.00 0.00
L 0.00 0.00
L 0.00 364.00
M 231.00 102.00 
C 238.99 104.05 240.52 108.63 248.70 111.30 C 256.87 113.97 255.21 125.25 255.00 133.00 C 254.79 140.75 257.33 152.27 249.30 155.30 C 241.27 158.34 238.62 162.49 231.00 165.00
C 230.20 175.41 229.09 188.42 240.69 191.31 C 252.30 194.19 256.57 203.17 255.00 214.00 C 253.43 224.83 259.75 239.63 245.00 241.00
C 243.23 250.37 235.84 261.05 226.92 264.92 C 217.99 268.78 200.03 267.16 199.03 280.03 C 198.02 292.89 200.80 309.43 195.75 319.75 C 190.70 330.07 187.14 338.10 177.75 344.75 C 168.36 351.41 154.03 352.66 146.25 343.75 C 138.47 334.85 136.29 321.72 137.00 310.00 C 137.71 298.28 132.36 286.51 120.97 283.03 C 109.59 279.54 97.12 279.66 87.11 273.89 C 77.10 268.12 72.83 258.35 70.07 247.93 C 67.31 237.51 64.44 226.80 56.25 218.75 C 48.06 210.71 44.34 204.36 32.75 199.25 C 21.17 194.13 23.75 177.45 24.00 165.00 C 24.25 152.55 38.74 150.19 47.00 145.00
C 47.56 132.95 49.53 120.09 35.92 117.08 C 22.31 114.07 24.02 100.84 24.00 89.00 C 23.98 77.16 24.86 67.53 39.22 64.22 C 53.59 60.92 41.42 41.24 47.33 32.33 C 53.24 23.42 62.80 24.52 72.03 17.03 C 81.25 9.54 86.64 22.42 98.08 24.92 C 109.53 27.42 108.89 43.67 109.00 54.00 C 109.11 64.33 122.32 70.10 132.03 67.03 C 141.73 63.95 148.35 52.93 145.00 40.00 C 141.65 27.07 156.73 26.49 164.69 19.69 C 172.66 12.90 182.48 15.21 191.23 21.77 C 199.98 28.33 211.04 31.85 207.00 46.00 C 202.96 60.15 213.63 63.73 224.08 68.92 C 234.54 74.11 230.50 90.86 231.00 102.00 Z"/>
</g>
<g fill="#F0E5D1" fill-opacity="1.00" stroke="None">
<path d="
M 231.00 102.00 
C 230.50 90.86 234.54 74.11 224.08 68.92 C 213.63 63.73 202.96 60.15 207.00 46.00 C 211.04 31.85 199.98 28.33 191.23 21.77 C 182.48 15.21 172.66 12.90 164.69 19.69 C 156.73 26.49 141.65 27.07 145.00 40.00 C 148.35 52.93 141.73 63.95 132.03 67.03 C 122.32 70.10 109.11 64.33 109.00 54.00 C 108.89 43.67 109.53 27.42 98.08 24.92 C 86.64 22.42 81.25 9.54 72.03 17.03 C 62.80 24.52 53.24 23.42 47.33 32.33 C 41.42 41.24 53.59 60.92 39.22 64.22 C 24.86 67.53 23.98 77.16 24.00 89.00 C 24.02 100.84 22.31 114.07 35.92 117.08 C 49.53 120.09 47.56 132.95 47.00 145.00
C 38.74 150.19 24.25 152.55 24.00 165.00 C 23.75 177.45 21.17 194.13 32.75 199.25 C 44.34 204.36 48.06 210.71 56.25 218.75 C 64.44 226.80 67.31 237.51 70.07 247.93 C 72.83 258.35 77.10 268.12 87.11 273.89 C 97.12 279.66 109.59 279.54 120.97 283.03 C 132.36 286.51 137.71 298.28 137.00 310.00 C 136.29 321.72 138.47 334.85 146.25 343.75 C 154.03 352.66 168.36 351.41 177.75 344.75 C 187.14 338.10 190.70 330.07 195.75 319.75 C 200.80 309.43 198.02 292.89 199.03 280.03 C 200.03 267.16 217.99 268.78 226.92 264.92 C 235.84 261.05 243.23 250.37 245.00 241.00
C 259.75 239.63 253.43 224.83 255.00 214.00 C 256.57 203.17 252.30 194.19 240.69 191.31 C 229.09 188.42 230.20 175.41 231.00 165.00
C 238.62 162.49 241.27 158.34 249.30 155.30 C 257.33 152.27 254.79 140.75 255.00 133.00 C 255.21 125.25 256.87 113.97 248.70 111.30 C 240.52 108.63 238.99 104.05 231.00 102.00
M 96.00 26.00 
C 96.43 26.17 97.00 26.00 97.00 26.00
C 106.76 28.14 110.24 36.67 108.00 47.00 C 105.76 57.33 110.13 63.18 119.25 67.75 C 128.37 72.32 132.24 68.48 141.08 64.08 C 149.92 59.68 146.87 47.07 147.00 38.00 C 147.13 28.93 156.89 26.60 163.25 22.25 C 169.60 17.89 179.00 13.47 185.25 19.75 C 191.49 26.04 199.20 25.56 204.75 32.25 C 210.30 38.93 201.32 55.35 207.75 61.25 C 214.19 67.14 220.94 67.44 227.70 73.30 C 234.45 79.17 225.98 95.75 230.33 102.67 C 234.68 109.59 245.53 107.62 251.08 113.92 C 256.63 120.23 253.24 134.29 254.00 143.00 C 254.76 151.71 246.48 156.65 238.26 159.26 C 230.04 161.86 227.24 174.14 230.00 183.00 C 232.76 191.86 237.58 193.31 247.25 197.75 C 256.91 202.20 251.79 211.97 254.00 223.00 C 256.21 234.03 247.77 237.27 242.70 243.70 C 237.62 250.12 237.29 257.85 228.92 261.92 C 220.55 265.99 213.38 266.01 204.75 269.75 C 196.13 273.50 197.46 286.06 198.00 295.00 C 198.54 303.94 197.59 315.33 193.67 322.67 C 189.75 330.01 185.99 335.22 179.75 340.75 C 173.51 346.28 163.72 349.82 155.00 348.00 C 146.28 346.18 144.45 337.20 141.02 329.98 C 137.60 322.75 138.15 309.26 138.00 301.00 C 137.85 292.74 132.13 285.64 124.92 282.08 C 117.71 278.52 106.68 277.95 98.93 276.07 C 91.17 274.19 82.94 272.20 78.25 264.75 C 73.56 257.31 72.16 248.92 70.00 241.00 C 67.84 233.08 63.86 225.80 59.75 219.25 C 55.64 212.70 47.83 208.95 42.92 204.08 C 38.00 199.22 25.39 197.37 26.00 189.00 C 26.62 180.63 23.44 165.57 27.26 158.26 C 31.08 150.94 42.67 150.83 48.00 146.00
C 51.27 132.77 50.27 118.48 35.75 114.25 C 21.24 110.01 25.68 89.19 26.00 77.00 C 26.32 64.81 53.40 68.89 49.00 53.00 C 44.60 37.11 53.09 28.74 65.25 22.25 C 77.40 15.75 85.73 14.98 96.00 26.00 Z"/>
</g>
<g fill="#CFB491" fill-opacity="1.00" stroke="None">
<path d="
M 97.00 26.00 
C 101.92 31.14 109.51 34.19 107.00 43.00 C 104.49 51.81 106.65 61.74 113.08 64.92 C 119.52 68.10 124.31 75.05 130.74 71.74 C 137.18 68.43 142.00 64.19 149.00 62.00
C 149.88 48.42 143.89 29.52 161.00 25.00
C 162.69 24.11 164.32 23.71 166.00 23.00
C 172.80 19.10 179.99 14.72 186.25 21.75 C 192.50 28.79 202.02 27.24 203.99 36.01 C 205.96 44.77 199.93 59.03 208.70 63.30 C 217.47 67.58 220.23 72.41 229.00 75.00
C 230.68 85.20 224.34 102.27 234.68 107.32 C 245.02 112.37 254.14 115.65 253.00 128.00 C 251.86 140.35 256.14 152.19 241.78 155.78 C 227.41 159.36 229.48 167.88 229.00 181.00 C 228.52 194.12 240.81 193.30 249.22 199.78 C 257.64 206.25 250.75 225.47 253.00 235.00
C 238.15 234.72 239.38 259.64 225.78 261.78 C 212.17 263.92 192.36 269.93 196.00 287.00 C 199.64 304.07 194.81 319.08 186.70 330.70 C 178.58 342.31 162.63 353.66 150.92 344.08 C 139.21 334.50 140.45 315.97 139.03 300.97 C 137.60 285.97 121.93 276.53 108.00 277.00 C 94.07 277.47 79.34 267.77 75.07 254.93 C 70.81 242.09 69.10 226.48 58.75 216.25 C 48.40 206.02 39.89 197.32 27.00 193.00
C 27.00 181.67 27.00 170.33 27.00 159.00
C 35.21 153.28 49.41 153.10 51.00 141.00 C 52.59 128.90 50.89 116.03 36.92 113.08 C 22.95 110.13 27.26 92.26 27.00 81.00 C 26.74 69.74 43.24 67.31 51.00 62.00
C 49.46 46.58 48.94 32.46 62.75 25.75 C 76.55 19.03 82.45 16.18 96.00 26.00
C 85.73 14.98 77.40 15.75 65.25 22.25 C 53.09 28.74 44.60 37.11 49.00 53.00 C 53.40 68.89 26.32 64.81 26.00 77.00 C 25.68 89.19 21.24 110.01 35.75 114.25 C 50.27 118.48 51.27 132.77 48.00 146.00
C 42.67 150.83 31.08 150.94 27.26 158.26 C 23.44 165.57 26.62 180.63 26.00 189.00 C 25.39 197.37 38.00 199.22 42.92 204.08 C 47.83 208.95 55.64 212.70 59.75 219.25 C 63.86 225.80 67.84 233.08 70.00 241.00 C 72.16 248.92 73.56 257.31 78.25 264.75 C 82.94 272.20 91.17 274.19 98.93 276.07 C 106.68 277.95 117.71 278.52 124.92 282.08 C 132.13 285.64 137.85 292.74 138.00 301.00 C 138.15 309.26 137.60 322.75 141.02 329.98 C 144.45 337.20 146.28 346.18 155.00 348.00 C 163.72 349.82 173.51 346.28 179.75 340.75 C 185.99 335.22 189.75 330.01 193.67 322.67 C 197.59 315.33 198.54 303.94 198.00 295.00 C 197.46 286.06 196.13 273.50 204.75 269.75 C 213.38 266.01 220.55 265.99 228.92 261.92 C 237.29 257.85 237.62 250.12 242.70 243.70 C 247.77 237.27 256.21 234.03 254.00 223.00 C 251.79 211.97 256.91 202.20 247.25 197.75 C 237.58 193.31 232.76 191.86 230.00 183.00 C 227.24 174.14 230.04 161.86 238.26 159.26 C 246.48 156.65 254.76 151.71 254.00 143.00 C 253.24 134.29 256.63 120.23 251.08 113.92 C 245.53 107.62 234.68 109.59 230.33 102.67 C 225.98 95.75 234.45 79.17 227.70 73.30 C 220.94 67.44 214.19 67.14 207.75 61.25 C 201.32 55.35 210.30 38.93 204.75 32.25 C 199.20 25.56 191.49 26.04 185.25 19.75 C 179.00 13.47 169.60 17.89 163.25 22.25 C 156.89 26.60 147.13 28.93 147.00 38.00 C 146.87 47.07 149.92 59.68 141.08 64.08 C 132.24 68.48 128.37 72.32 119.25 67.75 C 110.13 63.18 105.76 57.33 108.00 47.00 C 110.24 36.67 106.76 28.14 97.00 26.00 Z"/>
</g>
<g fill="#C49C6A" fill-opacity="1.00" stroke="None">
<path d="
M 166.00 23.00 
C 170.56 21.06 181.31 14.13 180.00 25.00
C 169.91 23.80 164.44 35.95 154.00 34.00
C 153.18 29.12 159.68 28.94 161.00 25.00
C 143.89 29.52 149.88 48.42 149.00 62.00
C 142.00 64.19 137.18 68.43 130.74 71.74 C 124.31 75.05 119.52 68.10 113.08 64.92 C 106.65 61.74 104.49 51.81 107.00 43.00 C 109.51 34.19 101.92 31.14 97.00 26.00
C 97.00 26.00 96.43 26.17 96.00 26.00
C 82.45 16.18 76.55 19.03 62.75 25.75 C 48.94 32.46 49.46 46.58 51.00 62.00
C 43.24 67.31 26.74 69.74 27.00 81.00 C 27.26 92.26 22.95 110.13 36.92 113.08 C 50.89 116.03 52.59 128.90 51.00 141.00 C 49.41 153.10 35.21 153.28 27.00 159.00
C 27.00 170.33 27.00 181.67 27.00 193.00
C 39.89 197.32 48.40 206.02 58.75 216.25 C 69.10 226.48 70.81 242.09 75.07 254.93 C 79.34 267.77 94.07 277.47 108.00 277.00 C 121.93 276.53 137.60 285.97 139.03 300.97 C 140.45 315.97 139.21 334.50 150.92 344.08 C 162.63 353.66 178.58 342.31 186.70 330.70 C 194.81 319.08 199.64 304.07 196.00 287.00 C 192.36 269.93 212.17 263.92 225.78 261.78 C 239.38 259.64 238.15 234.72 253.00 235.00
C 250.75 225.47 257.64 206.25 249.22 199.78 C 240.81 193.30 228.52 194.12 229.00 181.00 C 229.48 167.88 227.41 159.36 241.78 155.78 C 256.14 152.19 251.86 140.35 253.00 128.00 C 254.14 115.65 245.02 112.37 234.68 107.32 C 224.34 102.27 230.68 85.20 229.00 75.00
C 220.23 72.41 217.47 67.58 208.70 63.30 C 199.93 59.03 205.96 44.77 203.99 36.01 C 202.02 27.24 192.50 28.79 186.25 21.75 C 179.99 14.72 172.80 19.10 166.00 23.00
M 80.00 27.00 
C 85.44 27.53 88.10 33.76 94.25 35.75 C 100.39 37.75 97.29 48.46 98.00 55.00 C 98.71 61.54 91.22 63.29 86.25 67.25 C 81.28 71.21 74.88 69.77 69.75 66.25 C 64.63 62.72 57.85 59.94 59.00 53.00 C 60.15 46.06 57.55 37.40 63.75 34.75 C 69.95 32.10 73.87 26.41 80.00 27.00
M 196.00 61.00 
C 185.17 66.30 179.61 72.42 167.26 66.74 C 154.90 61.07 154.31 50.76 156.00 37.00
C 167.63 32.90 172.34 25.66 184.74 31.26 C 197.15 36.86 197.71 47.18 196.00 61.00
M 173.00 78.00 
C 173.00 86.67 173.00 95.33 173.00 104.00
C 162.93 105.54 158.33 118.39 147.26 113.74 C 136.18 109.10 130.47 104.06 131.00 91.00 C 131.53 77.94 136.57 75.28 147.08 69.08 C 157.59 62.89 162.68 77.57 173.00 78.00
M 74.00 103.00 
C 68.01 105.79 61.90 110.60 55.78 112.78 C 49.65 114.95 43.12 108.75 37.77 105.23 C 32.42 101.71 31.81 86.34 34.78 80.78 C 37.74 75.22 46.00 72.58 51.75 69.75 C 57.49 66.91 64.03 75.19 70.08 77.92 C 76.13 80.65 73.68 96.31 74.00 103.00
M 106.00 69.00 
C 110.34 69.90 116.77 75.15 120.75 78.25 C 124.72 81.35 123.78 94.32 123.00 100.00 C 122.22 105.68 114.49 106.46 110.25 111.25 C 106.00 116.04 98.07 112.04 92.78 109.22 C 87.48 106.40 82.11 101.89 83.00 95.00 C 83.89 88.11 81.25 78.73 88.74 76.74 C 96.24 74.76 97.91 67.33 106.00 69.00
M 202.00 69.00 
C 207.28 69.87 211.67 75.42 217.03 77.97 C 222.38 80.52 219.89 92.73 220.00 99.00 C 220.11 105.27 211.71 106.06 207.30 110.30 C 202.89 114.54 196.96 112.90 191.78 109.22 C 186.60 105.55 180.16 103.41 181.00 96.00 C 181.84 88.58 179.00 79.49 186.22 77.22 C 193.45 74.96 194.46 67.76 202.00 69.00
M 226.00 156.00 
C 225.51 156.08 224.49 156.08 224.00 156.00
C 215.90 154.61 206.37 149.37 204.01 139.99 C 201.65 130.61 204.92 118.58 215.25 114.25 C 225.57 109.92 228.35 109.59 238.74 116.26 C 249.14 122.92 245.68 134.69 246.00 146.00
C 238.59 147.28 233.19 154.01 226.00 156.00
M 117.00 150.00 
C 116.52 149.90 116.00 150.00 116.00 150.00
C 105.58 145.91 101.83 129.01 110.08 120.08 C 118.33 111.15 128.46 111.06 138.69 116.31 C 148.93 121.55 152.65 138.07 144.77 146.77 C 136.89 155.46 125.21 158.57 117.00 150.00
M 81.00 112.00 
C 85.72 112.88 90.14 118.47 95.22 120.78 C 100.31 123.09 97.95 134.56 98.00 141.00 C 98.05 147.44 89.64 147.92 84.92 151.92 C 80.20 155.92 75.13 153.60 69.75 150.25 C 64.38 146.90 57.66 144.72 59.00 137.00 C 60.34 129.28 56.97 121.84 64.68 119.68 C 72.39 117.52 72.65 110.44 81.00 112.00
M 156.00 122.00 
C 163.25 121.93 170.74 107.60 179.00 112.00 C 187.26 116.40 195.50 117.99 196.00 129.00 C 196.50 140.01 195.76 145.77 185.26 151.26 C 174.76 156.75 173.59 154.12 163.26 148.74 C 152.93 143.37 156.20 133.29 156.00 122.00
M 85.00 188.00 
C 84.65 187.77 84.00 188.00 84.00 188.00
C 81.48 187.63 79.42 164.97 83.75 162.75 C 88.09 160.54 97.88 152.66 103.07 153.07 C 108.26 153.49 118.22 160.16 122.22 162.78 C 126.23 165.39 125.54 185.33 122.74 188.74 C 119.94 192.15 108.49 198.58 103.97 198.97 C 99.46 199.37 87.47 191.78 85.00 188.00
M 57.00 154.00 
C 62.31 155.78 62.04 161.20 69.03 161.97 C 76.01 162.75 73.04 172.68 74.00 178.00 C 74.96 183.32 72.57 191.22 66.26 191.26 C 59.94 191.30 58.88 200.78 52.33 197.67 C 45.78 194.56 47.27 193.74 39.77 190.23 C 32.27 186.72 37.70 182.62 35.00 174.00 C 32.30 165.38 48.30 151.08 57.00 154.00
M 154.00 154.00 
C 159.29 154.99 163.18 160.82 168.74 163.26 C 174.31 165.69 172.03 177.47 172.00 184.00 C 171.97 190.53 163.22 189.80 158.77 194.77 C 154.32 199.74 148.03 196.30 142.78 193.22 C 137.52 190.14 130.75 187.28 132.00 180.00 C 133.25 172.72 129.75 163.50 137.68 161.68 C 145.61 159.86 145.82 152.47 154.00 154.00
M 204.00 154.00 
C 207.83 155.08 214.56 159.95 218.22 162.78 C 221.89 165.60 220.72 179.43 220.00 185.00 C 219.28 190.57 210.53 190.66 206.25 195.25 C 201.97 199.84 196.95 194.90 191.26 192.74 C 185.56 190.59 179.60 186.20 181.00 179.00 C 182.40 171.80 179.20 162.70 187.22 161.22 C 195.24 159.75 195.84 151.70 204.00 154.00
M 178.00 193.00 
C 188.11 199.46 198.38 204.94 198.00 218.00 C 197.62 231.06 188.87 241.29 175.00 241.00 C 161.13 240.71 154.47 229.09 155.00 216.00 C 155.53 202.91 166.04 197.61 178.00 193.00
M 228.00 196.00 
C 233.05 197.52 233.24 202.98 239.70 204.30 C 246.15 205.63 243.14 215.83 244.00 221.00 C 244.86 226.17 242.46 232.59 236.97 233.97 C 231.49 235.36 228.60 242.31 222.00 240.00 C 215.40 237.69 217.29 235.30 210.30 231.70 C 203.31 228.10 208.46 223.39 206.00 215.00 C 203.54 206.61 219.83 193.54 228.00 196.00
M 180.00 294.00 
C 184.73 303.82 180.72 312.03 176.08 323.08 C 171.44 334.13 157.41 326.54 165.25 317.25 C 173.09 307.95 177.30 304.92 180.00 294.00 Z"/>
</g>
<g fill="#B88448" fill-opacity="1.00" stroke="None">
<path d="
M 166.00 23.00 
C 164.32 23.71 162.69 24.11 161.00 25.00
C 159.68 28.94 153.18 29.12 154.00 34.00
C 164.44 35.95 169.91 23.80 180.00 25.00
C 181.31 14.13 170.56 21.06 166.00 23.00 Z"/>
</g>
<g fill="#FCFAF5" fill-opacity="1.00" stroke="None">
<path d="
M 80.00 27.00 
C 73.87 26.41 69.95 32.10 63.75 34.75 C 57.55 37.40 60.15 46.06 59.00 53.00 C 57.85 59.94 64.63 62.72 69.75 66.25 C 74.88 69.77 81.28 71.21 86.25 67.25 C 91.22 63.29 98.71 61.54 98.00 55.00 C 97.29 48.46 100.39 37.75 94.25 35.75 C 88.10 33.76 85.44 27.53 80.00 27.00 Z"/>
</g>
<g fill="#F3E5D0" fill-opacity="1.00" stroke="None">
<path d="
M 196.00 61.00 
C 197.71 47.18 197.15 36.86 184.74 31.26 C 172.34 25.66 167.63 32.90 156.00 37.00
C 154.31 50.76 154.90 61.07 167.26 66.74 C 179.61 72.42 185.17 66.30 196.00 61.00
M 193.00 61.00 
C 185.54 60.74 180.85 71.85 173.31 67.69 C 165.76 63.53 159.09 62.82 159.00 53.00 C 158.91 43.18 158.68 36.49 168.08 33.08 C 177.49 29.68 180.21 30.33 188.69 35.31 C 197.18 40.28 191.23 52.60 193.00 61.00 Z"/>
</g>
<g fill="#FEFEFD" fill-opacity="1.00" stroke="None">
<path d="
M 193.00 61.00 
C 191.23 52.60 197.18 40.28 188.69 35.31 C 180.21 30.33 177.49 29.68 168.08 33.08 C 158.68 36.49 158.91 43.18 159.00 53.00 C 159.09 62.82 165.76 63.53 173.31 67.69 C 180.85 71.85 185.54 60.74 193.00 61.00 Z"/>
</g>
<g fill="#D1B795" fill-opacity="1.00" stroke="None">
<path d="
M 173.00 78.00 
C 162.68 77.57 157.59 62.89 147.08 69.08 C 136.57 75.28 131.53 77.94 131.00 91.00 C 130.47 104.06 136.18 109.10 147.26 113.74 C 158.33 118.39 162.93 105.54 173.00 104.00
C 173.00 95.33 173.00 86.67 173.00 78.00
M 132.00 80.00 
C 139.25 79.88 145.88 66.33 153.67 70.33 C 161.46 74.34 170.26 75.44 171.00 86.00 C 171.73 96.56 171.18 104.05 160.75 108.75 C 150.33 113.45 148.70 111.76 138.92 106.08 C 129.14 100.40 132.14 90.85 132.00 80.00 Z"/>
</g>
<g fill="#EDDEC8" fill-opacity="1.00" stroke="None">
<path d="
M 74.00 103.00 
C 73.68 96.31 76.13 80.65 70.08 77.92 C 64.03 75.19 57.49 66.91 51.75 69.75 C 46.00 72.58 37.74 75.22 34.78 80.78 C 31.81 86.34 32.42 101.71 37.77 105.23 C 43.12 108.75 49.65 114.95 55.78 112.78 C 61.90 110.60 68.01 105.79 74.00 103.00
M 56.00 71.00 
C 59.29 71.40 68.00 78.69 70.75 81.25 C 73.50 83.81 73.28 100.54 69.75 102.75 C 66.21 104.95 57.29 112.45 53.00 111.00 C 48.70 109.54 40.22 104.98 37.75 101.25 C 35.28 97.52 35.57 81.83 39.25 79.25 C 42.93 76.67 51.42 70.45 56.00 71.00 Z"/>
</g>
<g fill="#E9D9C2" fill-opacity="1.00" stroke="None">
<path d="
M 106.00 69.00 
C 97.91 67.33 96.24 74.76 88.74 76.74 C 81.25 78.73 83.89 88.11 83.00 95.00 C 82.11 101.89 87.48 106.40 92.78 109.22 C 98.07 112.04 106.00 116.04 110.25 111.25 C 114.49 106.46 122.22 105.68 123.00 100.00 C 123.78 94.32 124.72 81.35 120.75 78.25 C 116.77 75.15 110.34 69.90 106.00 69.00
M 105.00 72.00 
C 116.05 74.02 122.46 83.90 121.00 94.00 C 119.54 104.10 111.96 111.19 101.92 111.06 C 91.87 110.94 84.34 98.83 85.00 90.00 C 85.66 81.17 94.67 70.11 105.00 72.00 Z"/>
</g>
<g fill="#F0E4CE" fill-opacity="1.00" stroke="None">
<path d="
M 202.00 69.00 
C 194.46 67.76 193.45 74.96 186.22 77.22 C 179.00 79.49 181.84 88.58 181.00 96.00 C 180.16 103.41 186.60 105.55 191.78 109.22 C 196.96 112.90 202.89 114.54 207.30 110.30 C 211.71 106.06 220.11 105.27 220.00 99.00 C 219.89 92.73 222.38 80.52 217.03 77.97 C 211.67 75.42 207.28 69.87 202.00 69.00
M 201.00 71.00 
C 205.72 71.39 212.01 78.28 216.25 80.75 C 220.49 83.23 220.47 97.84 217.25 101.25 C 214.02 104.65 205.80 110.53 200.97 110.97 C 196.14 111.42 187.99 104.87 184.75 102.25 C 181.51 99.63 181.28 82.78 184.26 80.26 C 187.24 77.74 196.94 70.67 201.00 71.00 Z"/>
</g>
<g fill="#F4EAD7" fill-opacity="1.00" stroke="None">
<path d="
M 132.00 80.00 
C 132.14 90.85 129.14 100.40 138.92 106.08 C 148.70 111.76 150.33 113.45 160.75 108.75 C 171.18 104.05 171.73 96.56 171.00 86.00 C 170.26 75.44 161.46 74.34 153.67 70.33 C 145.88 66.33 139.25 79.88 132.00 80.00
M 169.00 103.00 
C 161.79 102.99 155.73 114.81 148.26 109.74 C 140.78 104.68 134.20 105.49 133.00 95.00 C 131.80 84.51 135.18 79.92 144.08 75.08 C 152.98 70.25 154.52 72.51 163.25 77.75 C 171.98 83.00 168.53 93.22 169.00 103.00 Z"/>
</g>
<g fill="#FEFEFC" fill-opacity="1.00" stroke="None">
<path d="
M 56.00 71.00 
C 51.42 70.45 42.93 76.67 39.25 79.25 C 35.57 81.83 35.28 97.52 37.75 101.25 C 40.22 104.98 48.70 109.54 53.00 111.00 C 57.29 112.45 66.21 104.95 69.75 102.75 C 73.28 100.54 73.50 83.81 70.75 81.25 C 68.00 78.69 59.29 71.40 56.00 71.00 Z"/>
</g>
<g fill="#FEFEFC" fill-opacity="1.00" stroke="None">
<path d="
M 169.00 103.00 
C 168.53 93.22 171.98 83.00 163.25 77.75 C 154.52 72.51 152.98 70.25 144.08 75.08 C 135.18 79.92 131.80 84.51 133.00 95.00 C 134.20 105.49 140.78 104.68 148.26 109.74 C 155.73 114.81 161.79 102.99 169.00 103.00 Z"/>
</g>
<g fill="#FEFEFC" fill-opacity="1.00" stroke="None">
<path d="
M 201.00 71.00 
C 196.94 70.67 187.24 77.74 184.26 80.26 C 181.28 82.78 181.51 99.63 184.75 102.25 C 187.99 104.87 196.14 111.42 200.97 110.97 C 205.80 110.53 214.02 104.65 217.25 101.25 C 220.47 97.84 220.49 83.23 216.25 80.75 C 212.01 78.28 205.72 71.39 201.00 71.00 Z"/>
</g>
<g fill="#FEFEFC" fill-opacity="1.00" stroke="None">
<path d="
M 105.00 72.00 
C 94.67 70.11 85.66 81.17 85.00 90.00 C 84.34 98.83 91.87 110.94 101.92 111.06 C 111.96 111.19 119.54 104.10 121.00 94.00 C 122.46 83.90 116.05 74.02 105.00 72.00 Z"/>
</g>
<g fill="#D3BA9A" fill-opacity="1.00" stroke="None">
<path d="
M 224.00 156.00 
C 219.86 153.47 211.12 148.50 207.75 145.25 C 204.38 142.00 204.05 124.17 207.26 121.26 C 210.46 118.34 220.51 112.15 225.01 112.01 C 229.51 111.87 239.13 118.24 242.25 121.75 C 245.36 125.26 246.08 141.55 242.25 145.25 C 238.41 148.94 230.42 152.92 226.00 156.00
C 233.19 154.01 238.59 147.28 246.00 146.00
C 245.68 134.69 249.14 122.92 238.74 116.26 C 228.35 109.59 225.57 109.92 215.25 114.25 C 204.92 118.58 201.65 130.61 204.01 139.99 C 206.37 149.37 215.90 154.61 224.00 156.00 Z"/>
</g>
<g fill="#D8C0A1" fill-opacity="1.00" stroke="None">
<path d="
M 116.00 150.00 
C 110.90 142.70 106.80 141.85 108.00 131.00 C 109.20 120.15 111.64 120.87 120.03 116.03 C 128.42 111.18 128.94 113.40 137.70 117.30 C 146.45 121.21 146.95 124.85 147.00 135.00 C 147.05 145.15 143.97 145.45 136.25 151.25 C 128.54 157.06 124.64 151.68 117.00 150.00
C 125.21 158.57 136.89 155.46 144.77 146.77 C 152.65 138.07 148.93 121.55 138.69 116.31 C 128.46 111.06 118.33 111.15 110.08 120.08 C 101.83 129.01 105.58 145.91 116.00 150.00 Z"/>
</g>
<g fill="#FDFBF7" fill-opacity="1.00" stroke="None">
<path d="
M 81.00 112.00 
C 72.65 110.44 72.39 117.52 64.68 119.68 C 56.97 121.84 60.34 129.28 59.00 137.00 C 57.66 144.72 64.38 146.90 69.75 150.25 C 75.13 153.60 80.20 155.92 84.92 151.92 C 89.64 147.92 98.05 147.44 98.00 141.00 C 97.95 134.56 100.31 123.09 95.22 120.78 C 90.14 118.47 85.72 112.88 81.00 112.00 Z"/>
</g>
<g fill="#F4EBD7" fill-opacity="1.00" stroke="None">
<path d="
M 116.00 150.00 
C 116.00 150.00 116.52 149.90 117.00 150.00
C 124.64 151.68 128.54 157.06 136.25 151.25 C 143.97 145.45 147.05 145.15 147.00 135.00 C 146.95 124.85 146.45 121.21 137.70 117.30 C 128.94 113.40 128.42 111.18 120.03 116.03 C 111.64 120.87 109.20 120.15 108.00 131.00 C 106.80 141.85 110.90 142.70 116.00 150.00
M 110.00 123.00 
C 116.18 121.77 122.18 111.50 129.22 114.78 C 136.27 118.06 144.90 119.35 145.00 129.00 C 145.10 138.65 145.57 144.42 136.25 149.25 C 126.94 154.09 124.39 152.06 115.90 147.10 C 107.42 142.13 110.16 132.64 110.00 123.00 Z"/>
</g>
<g fill="#F2E6D1" fill-opacity="1.00" stroke="None">
<path d="
M 156.00 122.00 
C 156.20 133.29 152.93 143.37 163.26 148.74 C 173.59 154.12 174.76 156.75 185.26 151.26 C 195.76 145.77 196.50 140.01 196.00 129.00 C 195.50 117.99 187.26 116.40 179.00 112.00 C 170.74 107.60 163.25 121.93 156.00 122.00
M 178.00 114.00 
C 183.66 114.95 192.19 119.90 193.97 127.03 C 195.76 134.15 194.16 144.35 185.92 148.92 C 177.67 153.49 174.24 150.93 166.26 147.74 C 158.27 144.56 156.58 131.50 159.00 125.00 C 161.42 118.50 173.04 113.17 178.00 114.00 Z"/>
</g>
<g fill="#F3EAD8" fill-opacity="1.00" stroke="None">
<path d="
M 224.00 156.00 
C 224.49 156.08 225.51 156.08 226.00 156.00
C 230.42 152.92 238.41 148.94 242.25 145.25 C 246.08 141.55 245.36 125.26 242.25 121.75 C 239.13 118.24 229.51 111.87 225.01 112.01 C 220.51 112.15 210.46 118.34 207.26 121.26 C 204.05 124.17 204.38 142.00 207.75 145.25 C 211.12 148.50 219.86 153.47 224.00 156.00
M 227.00 113.00 
C 231.37 114.03 234.88 119.05 240.03 120.97 C 245.17 122.90 242.71 134.01 243.00 140.00 C 243.29 145.99 235.30 146.46 231.26 150.26 C 227.22 154.05 221.79 152.04 216.77 149.23 C 211.75 146.42 206.09 143.68 207.00 137.00 C 207.91 130.32 205.09 121.67 212.22 120.22 C 219.36 118.78 219.62 111.27 227.00 113.00 Z"/>
</g>
<g fill="#FEFEFC" fill-opacity="1.00" stroke="None">
<path d="
M 227.00 113.00 
C 219.62 111.27 219.36 118.78 212.22 120.22 C 205.09 121.67 207.91 130.32 207.00 137.00 C 206.09 143.68 211.75 146.42 216.77 149.23 C 221.79 152.04 227.22 154.05 231.26 150.26 C 235.30 146.46 243.29 145.99 243.00 140.00 C 242.71 134.01 245.17 122.90 240.03 120.97 C 234.88 119.05 231.37 114.03 227.00 113.00 Z"/>
</g>
<g fill="#FEFEFD" fill-opacity="1.00" stroke="None">
<path d="
M 110.00 123.00 
C 110.16 132.64 107.42 142.13 115.90 147.10 C 124.39 152.06 126.94 154.09 136.25 149.25 C 145.57 144.42 145.10 138.65 145.00 129.00 C 144.90 119.35 136.27 118.06 129.22 114.78 C 122.18 111.50 116.18 121.77 110.00 123.00 Z"/>
</g>
<g fill="#FEFEFD" fill-opacity="1.00" stroke="None">
<path d="
M 178.00 114.00 
C 173.04 113.17 161.42 118.50 159.00 125.00 C 156.58 131.50 158.27 144.56 166.26 147.74 C 174.24 150.93 177.67 153.49 185.92 148.92 C 194.16 144.35 195.76 134.15 193.97 127.03 C 192.19 119.90 183.66 114.95 178.00 114.00 Z"/>
</g>
<g fill="#D3BB9A" fill-opacity="1.00" stroke="None">
<path d="
M 84.00 188.00 
C 83.00 176.97 81.09 165.60 91.08 160.08 C 101.07 154.56 103.75 153.89 114.08 159.92 C 124.41 165.94 122.44 175.79 122.00 188.00
C 114.91 189.50 109.72 195.33 103.00 198.00
C 97.07 194.37 91.01 191.39 85.00 188.00
C 87.47 191.78 99.46 199.37 103.97 198.97 C 108.49 198.58 119.94 192.15 122.74 188.74 C 125.54 185.33 126.23 165.39 122.22 162.78 C 118.22 160.16 108.26 153.49 103.07 153.07 C 97.88 152.66 88.09 160.54 83.75 162.75 C 79.42 164.97 81.48 187.63 84.00 188.00 Z"/>
</g>
<g fill="#F1E6D3" fill-opacity="1.00" stroke="None">
<path d="
M 57.00 154.00 
C 48.30 151.08 32.30 165.38 35.00 174.00 C 37.70 182.62 32.27 186.72 39.77 190.23 C 47.27 193.74 45.78 194.56 52.33 197.67 C 58.88 200.78 59.94 191.30 66.26 191.26 C 72.57 191.22 74.96 183.32 74.00 178.00 C 73.04 172.68 76.01 162.75 69.03 161.97 C 62.04 161.20 62.31 155.78 57.00 154.00
M 55.00 155.00 
C 62.15 162.68 70.24 159.82 71.00 172.00 C 71.75 184.18 69.53 188.79 58.97 192.97 C 48.41 197.16 47.23 189.39 37.00 187.00
C 38.84 181.25 33.78 167.87 38.75 163.75 C 43.73 159.64 49.78 158.49 55.00 155.00 Z"/>
</g>
<g fill="#F3EBD8" fill-opacity="1.00" stroke="None">
<path d="
M 84.00 188.00 
C 84.00 188.00 84.65 187.77 85.00 188.00
C 91.01 191.39 97.07 194.37 103.00 198.00
C 109.72 195.33 114.91 189.50 122.00 188.00
C 122.44 175.79 124.41 165.94 114.08 159.92 C 103.75 153.89 101.07 154.56 91.08 160.08 C 81.09 165.60 83.00 176.97 84.00 188.00
M 121.00 165.00 
C 120.73 175.11 123.77 183.83 114.97 188.97 C 106.18 194.11 105.49 196.51 95.92 192.08 C 86.36 187.64 83.92 182.33 85.00 172.00 C 86.08 161.67 92.27 161.12 100.08 157.08 C 107.89 153.05 113.45 165.18 121.00 165.00 Z"/>
</g>
<g fill="#F2E5D0" fill-opacity="1.00" stroke="None">
<path d="
M 154.00 154.00 
C 145.82 152.47 145.61 159.86 137.68 161.68 C 129.75 163.50 133.25 172.72 132.00 180.00 C 130.75 187.28 137.52 190.14 142.78 193.22 C 148.03 196.30 154.32 199.74 158.77 194.77 C 163.22 189.80 171.97 190.53 172.00 184.00 C 172.03 177.47 174.31 165.69 168.74 163.26 C 163.18 160.82 159.29 154.99 154.00 154.00
M 153.00 155.00 
C 161.46 160.65 169.14 165.36 169.00 176.00 C 168.86 186.64 162.61 195.84 151.00 195.00 C 139.39 194.16 134.81 184.49 135.00 174.00 C 135.19 163.51 143.26 158.72 153.00 155.00 Z"/>
</g>
<g fill="#F2E7D3" fill-opacity="1.00" stroke="None">
<path d="
M 204.00 154.00 
C 195.84 151.70 195.24 159.75 187.22 161.22 C 179.20 162.70 182.40 171.80 181.00 179.00 C 179.60 186.20 185.56 190.59 191.26 192.74 C 196.95 194.90 201.97 199.84 206.25 195.25 C 210.53 190.66 219.28 190.57 220.00 185.00 C 220.72 179.43 221.89 165.60 218.22 162.78 C 214.56 159.95 207.83 155.08 204.00 154.00
M 202.00 155.00 
C 206.79 155.45 209.37 160.56 214.70 163.30 C 220.03 166.05 217.56 175.50 218.00 182.00 C 218.44 188.50 211.38 188.41 206.75 192.75 C 202.13 197.10 198.72 194.04 193.75 191.25 C 188.78 188.45 181.33 187.22 183.00 180.00 C 184.67 172.78 180.41 164.19 187.68 162.68 C 194.95 161.17 195.31 154.37 202.00 155.00 Z"/>
</g>
<g fill="#FEFEFD" fill-opacity="1.00" stroke="None">
<path d="
M 55.00 155.00 
C 49.78 158.49 43.73 159.64 38.75 163.75 C 33.78 167.87 38.84 181.25 37.00 187.00
C 47.23 189.39 48.41 197.16 58.97 192.97 C 69.53 188.79 71.75 184.18 71.00 172.00 C 70.24 159.82 62.15 162.68 55.00 155.00 Z"/>
</g>
<g fill="#FEFEFD" fill-opacity="1.00" stroke="None">
<path d="
M 153.00 155.00 
C 143.26 158.72 135.19 163.51 135.00 174.00 C 134.81 184.49 139.39 194.16 151.00 195.00 C 162.61 195.84 168.86 186.64 169.00 176.00 C 169.14 165.36 161.46 160.65 153.00 155.00 Z"/>
</g>
<g fill="#FEFEFD" fill-opacity="1.00" stroke="None">
<path d="
M 202.00 155.00 
C 195.31 154.37 194.95 161.17 187.68 162.68 C 180.41 164.19 184.67 172.78 183.00 180.00 C 181.33 187.22 188.78 188.45 193.75 191.25 C 198.72 194.04 202.13 197.10 206.75 192.75 C 211.38 188.41 218.44 188.50 218.00 182.00 C 217.56 175.50 220.03 166.05 214.70 163.30 C 209.37 160.56 206.79 155.45 202.00 155.00 Z"/>
</g>
<g fill="#FEFEFD" fill-opacity="1.00" stroke="None">
<path d="
M 121.00 165.00 
C 113.45 165.18 107.89 153.05 100.08 157.08 C 92.27 161.12 86.08 161.67 85.00 172.00 C 83.92 182.33 86.36 187.64 95.92 192.08 C 105.49 196.51 106.18 194.11 114.97 188.97 C 123.77 183.83 120.73 175.11 121.00 165.00 Z"/>
</g>
<g fill="#CEB390" fill-opacity="1.00" stroke="None">
<path d="
M 178.00 193.00 
C 166.04 197.61 155.53 202.91 155.00 216.00 C 154.47 229.09 161.13 240.71 175.00 241.00 C 188.87 241.29 197.62 231.06 198.00 218.00 C 198.38 204.94 188.11 199.46 178.00 193.00
M 196.00 230.00 
C 188.25 229.26 181.74 243.62 173.78 239.22 C 165.82 234.82 158.03 233.76 157.00 223.00 C 155.97 212.24 157.46 205.58 167.74 200.74 C 178.03 195.91 178.84 197.68 189.22 202.78 C 199.61 207.87 195.27 219.61 196.00 230.00 Z"/>
</g>
<g fill="#F4EAD7" fill-opacity="1.00" stroke="None">
<path d="
M 196.00 230.00 
C 195.27 219.61 199.61 207.87 189.22 202.78 C 178.84 197.68 178.03 195.91 167.74 200.74 C 157.46 205.58 155.97 212.24 157.00 223.00 C 158.03 233.76 165.82 234.82 173.78 239.22 C 181.74 243.62 188.25 229.26 196.00 230.00
M 159.00 207.00 
C 165.53 206.59 172.06 195.31 178.70 199.31 C 185.33 203.30 193.72 203.52 195.00 213.00 C 196.27 222.48 194.19 229.85 185.25 234.25 C 176.30 238.65 173.48 236.96 164.78 232.22 C 156.08 227.49 159.53 215.78 159.00 207.00 Z"/>
</g>
<g fill="#FCFAF6" fill-opacity="1.00" stroke="None">
<path d="
M 228.00 196.00 
C 219.83 193.54 203.54 206.61 206.00 215.00 C 208.46 223.39 203.31 228.10 210.30 231.70 C 217.29 235.30 215.40 237.69 222.00 240.00 C 228.60 242.31 231.49 235.36 236.97 233.97 C 242.46 232.59 244.86 226.17 244.00 221.00 C 243.14 215.83 246.15 205.63 239.70 204.30 C 233.24 202.98 233.05 197.52 228.00 196.00 Z"/>
</g>
<g fill="#FEFEFC" fill-opacity="1.00" stroke="None">
<path d="
M 159.00 207.00 
C 159.53 215.78 156.08 227.49 164.78 232.22 C 173.48 236.96 176.30 238.65 185.25 234.25 C 194.19 229.85 196.27 222.48 195.00 213.00 C 193.72 203.52 185.33 203.30 178.70 199.31 C 172.06 195.31 165.53 206.59 159.00 207.00 Z"/>
</g>
<g fill="#E9DAC1" fill-opacity="1.00" stroke="None">
<path d="
M 180.00 294.00 
C 177.30 304.92 173.09 307.95 165.25 317.25 C 157.41 326.54 171.44 334.13 176.08 323.08 C 180.72 312.03 184.73 303.82 180.00 294.00
M 179.00 306.00 
C 180.26 311.11 172.54 331.11 166.26 325.74 C 159.97 320.38 176.05 309.53 179.00 306.00 Z"/>
</g>
<g fill="#FEFDF7" fill-opacity="1.00" stroke="None">
<path d="
M 179.00 306.00 
C 176.05 309.53 159.97 320.38 166.26 325.74 C 172.54 331.11 180.26 311.11 179.00 306.00 Z"/>
</g>
</svg>